<?xml version="1.0" encoding="utf-8"?>
<!-- Generator: Adobe Illustrator 21.1.0, SVG Export Plug-In . SVG Version: 6.00 Build 0)  -->
<svg version="1.1" xmlns="http://www.w3.org/2000/svg" xmlns:xlink="http://www.w3.org/1999/xlink" x="0px" y="0px"
	 viewBox="0 0 50 39.5" style="enable-background:new 0 0 50 39.5;" xml:space="preserve">
<style type="text/css">
	.st0{fill:#FFFFFF;}
	.st1{fill:#1D1C1A;}
</style>
<g id="solid">
	<polygon class="st0" points="8.3,13.1 9.9,9.3 11.6,7.3 13.7,6 15.9,5.7 19,5 22,5 24.2,5 28.1,5.9 30.3,6.9 32.5,9.3 34.6,13.1 
		36.3,14.4 37.9,15.2 36.7,15.9 37.1,16.5 38.6,17.1 41.7,15.2 44.6,15 48.6,16.7 48.9,17.3 48.4,19.9 47.2,20.1 46.9,21 45.6,21.9 
		43.9,22.6 45.5,25.5 45.4,26.5 42.7,26.7 41.1,26.4 39.3,24.1 39.1,24.4 37.5,24.2 38,27.3 37.2,30.5 35.1,33.7 33.8,34.4 
		32.5,34.5 30.8,33.6 30.3,32.1 31.4,29 31.8,26 31.7,25.5 24.6,26.2 15.9,25.2 9.2,22.7 8.3,22.5 6.4,24.1 5.5,25.9 2.4,23.6 
		1.5,21.4 5.2,19.8 4.9,18.4 7.1,14.6 	"/>
</g>
<g id="tortoise">
	<path class="st1" d="M43.2,18.6c0,0.3,0.3,0.6,0.6,0.6s0.6-0.3,0.6-0.6s-0.2-0.5-0.6-0.6C43.5,18,43.2,18.2,43.2,18.6z"/>
	<path class="st1" d="M49,16.8c-0.1-0.1-2.1-1.6-4.8-2.2c-2.4-0.5-4.7,1.1-5.6,1.8c-0.1,0.1-0.3,0.2-0.3,0.2s-0.3,0-0.9-0.3
		c-0.1,0-0.1-0.1-0.2-0.1h0.1c0.2,0,0.7-0.1,0.8-0.5c0.1-0.2,0.1-0.5-0.2-0.8c-0.2-0.2-0.6-0.4-1.3-0.7c-0.5-0.2-1-0.5-1.4-0.8
		c-0.6-0.4-0.7-0.6-0.7-0.6c-0.1-0.5-0.8-2.1-1.9-3.6c-0.6-0.9-1.3-1.7-2-2.2l-0.1-0.1h-0.1c-0.8-0.6-1.6-1-2.5-1.2
		c-0.3-0.1-3-1.1-5-1.2h-1.2c-0.2,0-0.8-0.1-1.6-0.1c-1.6,0-3.8,0.1-5.1,1c-0.6,0-3,0.3-4.1,2.1c-0.2,0.2-1,0.7-1.7,1.7
		c-1.1,1.4-1.7,2.9-1.8,4.4c-0.3,0.3-0.9,1-1.5,1.8c-1.1,1.5-1.7,2.6-1.6,3.2v0.1l0.2,0.4C4,19.5,2.6,20.4,1.4,21
		c-0.5,0.3-0.6,0.7-0.5,1.3c0.2,1,1.3,2,1.8,2.4C3.1,25,4.3,26,5.2,26c0.2,0,0.3-0.1,0.4-0.2c0-0.1,0.7-1.3,0.9-1.6
		c0.2-0.2,1.2-0.9,2.1-1.5C8.7,23,8.8,23,9,23.1c1,0.5,3,1.4,6,2.2c2.4,0.6,4.8,1,7.3,1.2c3,0.2,6,0,8.9-0.5c0.1,1,0.2,3.7-1,5
		c-0.7,0.8-0.8,1.7-0.2,2.5c0.6,0.9,1.7,1.4,2.8,1.4c0.3,0,0.6,0,0.8-0.2c1.2-0.4,2.9-2.3,3.8-4.4c0.5-1.1,0.7-2.1,0.8-3.1
		c0-1,0-1.9-0.3-2.7h0.7l0.1,0.1l2,2c0.2,0.2,0.3,0.2,0.9,0.3c0.3,0,0.8,0.1,1.3,0.1c0.7,0,1.9,0,2.4-0.3c0.1-0.1,0.3-0.2,0.3-0.5
		s0-0.9-0.8-2.4c-0.3-0.4-0.5-0.8-0.6-1.1c0.5-0.2,1-0.5,1.1-0.5c0.5-0.1,1.1-0.6,1.3-0.8c0.3-0.2,0.7-0.6,0.9-1h0.2v-0.1l0.6-0.1
		c0.2,0,0.3-0.2,0.3-0.3L49,17C49.2,17,49.1,16.9,49,16.8z M36.6,14.9l0.6,0.3c-0.9,0-1.7,0.5-2.3,1.1h-0.2
		c-1.6-0.3-2.8-2.3-3.1-2.9c0.4-0.1,0.7-0.2,1-0.3c0.6-0.3,1-0.5,1.2-0.7c0.1,0.3,0.2,0.5,0.2,0.6C34.2,13.8,35.2,14.2,36.6,14.9z
		 M15.6,6.9L17,7.5l-2.8,5.6c-0.1,0.1-0.7,1.7-0.7,3.1c-0.2,0.1-0.8,0.3-1.9-0.1c-0.8-0.3-1.3-0.7-1.5-1.3c-0.2-0.5-0.1-1,0.2-1.6
		l2.5-5C12.8,8.2,15.6,6.9,15.6,6.9z M13.7,16.3c0-1.3,0.6-2.9,0.7-3l2.9-5.8l3-1.4l1.9,1.6c-0.1,0.3-0.5,1.4-0.9,2.7
		c-0.4,1.5-0.8,3.7-0.3,6c-0.3,0.3-2.1,1.4-4.6,1.1C13.7,17.3,13.8,16.3,13.7,16.3z M25.9,8c0.2,0.6,1.1,2.8,1.5,3.2
		c0.2,0.2,0.5,0.6,0.8,1.1s0.5,0.9,0.4,1c0,0-0.6,2.5-2.7,2.8c-0.6,0.1-1.1,0.2-1.6,0.3c-1.4,0.4-2.4,0.6-3,0
		c-0.5-2.2-0.1-4.4,0.3-5.9c0.4-1.4,0.8-2.4,0.9-2.7v0.1C22.5,7.9,25.9,8,25.9,8z M27.9,6.6L29.5,7c1.2,0.7,2.1,1.8,2.8,2.7
		c0.5,0.7,0.9,1.5,1.2,2.1c0,0.1,0.1,0.3,0.1,0.4c-0.3,0.3-1.9,1.4-4.6,1c-0.1-0.7-1-1.9-1.4-2.2c-0.3-0.2-1-1.9-1.4-3
		C26.2,8,27.9,6.6,27.9,6.6z M16.4,17.9H17c1.3,0,2.3-0.3,2.9-0.6H20c-0.1,0.9-0.4,4.5,0.1,6.1c-1.1,0.1-2.3,0.1-3.5,0.1h-0.7
		c-0.9,0-1.7-0.1-2.5-0.2c0.2-2,1.7-4.9,2.1-5.5C15.7,17.8,16,17.8,16.4,17.9z M20.3,23.3c-0.5-1.6-0.1-6.1-0.1-6.2
		c0.4-0.2,0.7-0.4,0.8-0.5c0.3,0.3,0.7,0.4,1.2,0.4c0.4,0,0.8-0.1,1.3-0.2c0.1,0.1,0.8,1.2,1.5,2.4c0.9,1.6,1.3,2.5,1.4,3
		C24.5,22.8,22.5,23.2,20.3,23.3z M26.7,22.2c-0.3-1.7-2.3-4.7-2.8-5.4c0.2,0,0.3-0.1,0.5-0.1c0.5-0.1,1.1-0.2,1.6-0.3
		c0.4-0.1,0.8-0.2,1.2-0.5l2,2c1.3,1.2,1.9,1.8,2.2,2c-1,0.8-2.5,1.5-4.2,2.1C27.1,22.1,26.9,22.2,26.7,22.2z M31.8,19.7
		c-0.6-0.4-2.2-1.8-4.3-4c0.3-0.3,0.6-0.6,0.9-1c0.4-0.6,0.5-1.1,0.6-1.3c0.3,0.1,0.7,0.1,1,0.1c0.5,0,0.9,0,1.3-0.1
		c0.1,0.2,0.4,0.8,0.9,1.4c0.8,1,1.6,1.6,2.4,1.7c-0.5,0.5-1,1.1-1.5,1.6c-0.4,0.5-0.7,0.9-1.1,1.2C32,19.6,31.9,19.6,31.8,19.7z
		 M23.2,5.2c1.9,0,4.2,0.9,4.7,1.1L26,7.6l-3.4-0.1l-2-1.5l0.9-0.7h0.7C22.4,5.2,22.8,5.2,23.2,5.2z M20.4,5.2H21l-0.7,0.5h-0.1
		L17,7.2l-1.4-0.6V6.1C17,5.3,19.2,5.2,20.4,5.2z M15.4,6.2v0.3l-2.7,1.3l-0.5-0.4c0.4-0.5,1-0.8,1.7-1C14.7,6.3,15.3,6.3,15.4,6.2z
		 M10.2,9.8c0.8-1,1.6-1.6,1.6-1.6l0.1-0.1C12,8,12,7.9,12.1,7.8l0.4,0.3L10,13l-1.4,0.5C8.7,11.9,9.5,10.6,10.2,9.8z M6.9,16
		c0.8-1,1.6-1.9,1.6-1.9c0.1-0.1,0.1-0.2,0.1-0.2l1.2-0.4c-0.2,0.6-0.2,1.1,0,1.6c0.1,0.3,0.3,0.5,0.5,0.7L7,21.1
		c-1.3-1-1.7-2.1-1.7-2.2C5.2,18.4,5.4,17.7,6.9,16z M7.2,22.8C6,23.6,5.8,23.9,5.8,24c-0.1,0.2-0.5,0.8-0.7,1.3
		c-0.4-0.2-1-0.5-1.7-1.1c-0.9-0.7-1.5-1.5-1.6-2c-0.1-0.2,0-0.3,0.1-0.3c1.2-0.7,2.5-1.6,3.1-2c0.3,0.5,0.7,1,1.4,1.5
		c0.4,0.4,0.9,0.7,1.4,1C7.5,22.6,7.3,22.7,7.2,22.8z M7.2,21.1l3.3-5.2c0.3,0.2,0.6,0.4,1,0.5c0.5,0.2,1,0.3,1.3,0.3
		c0.4,0,0.6-0.1,0.8-0.1c0,0.1,0.1,0.2,0.2,0.3c0.3,0.3,0.8,0.6,1.5,0.8c-0.2,0.3-0.5,1-0.9,1.8c-0.7,1.6-1.1,2.8-1.2,3.7
		c-1.1-0.2-2-0.4-2.9-0.7C8.9,22.1,8,21.7,7.2,21.1z M48,19.6l-0.5,0.1l-2.3,0.1c-0.5,0.8-2.7,1.1-2.7,1.1c1.6,0.2,2.7-0.7,2.8-0.6
		l1.4,0.1c-0.5,0.6-1.2,1.1-1.4,1.1c-0.5,0.1-1.6,0.7-1.8,0.9c-0.1,0.1-0.2,0.2-0.2,0.3c0,0.1,0,0.2,0.1,0.3c0,0,0.5,0.7,0.8,1.4
		c0.6,1.1,0.6,1.6,0.6,1.7c-0.2,0.1-0.9,0.2-1.8,0.2s-1.6-0.1-1.8-0.2c-0.2-0.2-1.1-1-1.6-1.6c0.9-0.3,2.4-0.8,3-1.7
		c0,0-1.6,0.9-4.7,1h-0.2c-1.2-1.9-5.3-3.2-5.1-3.1c3.1,1.7,4,3.1,4.2,3.6v0.2c1,2.1,0.4,4.3-0.2,5.7c-1,2.2-2.5,3.7-3.2,3.9
		c-0.9,0.3-2.2-0.2-2.8-1c-0.3-0.5-0.3-1,0.2-1.5c1.4-1.6,1.3-4.4,1.2-5.6c0-0.7-0.5-2.4-0.5-2.4c0.1,0.6-0.2,1.3-0.3,1.6
		c-2.9,0.5-5.9,0.7-8.8,0.5c-2.4-0.1-4.8-0.5-7.1-1.2c-0.4-0.1-0.7-0.2-1.1-0.3c0.5,0,1.1,0.1,1.6,0.1h0.7c4.2,0.1,7.9-0.4,10.9-1.3
		c3.1-1.1,4.6-2.3,5.1-2.8c0.4-0.4,0.7-0.8,1.1-1.3c0.8-1,1.7-2,2.6-2.5c0,0,0.4,0.3,0.9,0.6c0.7,0.4,1.3,0.5,1.7,0.3
		c0.1,0,0.2-0.2,0.4-0.2c0.8-0.6,2.9-2,5-1.6c2,0.4,3.7,1.5,4.2,1.9C48.4,17.4,48,19.6,48,19.6z"/>
</g>
</svg>
