<?xml version="1.0" encoding="utf-8"?>
<!-- Generator: Adobe Illustrator 19.1.0, SVG Export Plug-In . SVG Version: 6.00 Build 0)  -->
<svg version="1.1" id="Layer_1" xmlns="http://www.w3.org/2000/svg" xmlns:xlink="http://www.w3.org/1999/xlink" x="0px" y="0px"
	 viewBox="0 0 200 200" style="enable-background:new 0 0 200 200;" xml:space="preserve">
<style type="text/css">
	.st0{fill:#191817;}
	.st1{fill:#FFFFFF;}
	.st2{fill:#CED0D0;}
</style>
<g>
	<path class="st0" d="M136.6,98.5c-0.2-5.5-3.5-15.3-6.9-20.7c-3-4.7-8.6-13.1-11.3-16c-0.6-0.7-1.9-2.2-2.6-3.2
		c-0.3-0.8-1.2-3.5-1.4-7.3c-0.2-4.3,0.5-6,0.8-6.4c5-5.6,7.5-11.5,8.1-15c0.4-1.9,1.3-8.3-1.4-11.1c-0.7-0.7-1.8-1.5-3.6-1.5
		c-1.1,0-2.1,0.3-2.9,0.5c-0.4,0.1-0.8,0.2-1,0.2c-1.6,0.1-4.4,1.5-6.1,2.4c-1.1-0.3-2.9-0.6-4.5-0.6c-1.3,0-2.4,0.3-3.2,0.8
		c-0.4,0.3-1.6,1-2.9,1.8c-3.4,2.1-6,3.7-7.4,4.8c-0.2-0.1-0.5-0.2-0.7-0.3c-0.9-0.4-2-0.8-3.1-0.8c-1.6,0-3,1-3.5,2.6
		c-1.2,3.6-0.8,6.3,1.8,9.7c-1.4,2.8-4.2,9.2-5.6,19.4c-9.4,14.6-11.2,26.5-11.5,32.3c-0.8,10.4,2.1,14,5.6,15.6
		c-0.2,1.7-0.2,2.7-0.2,3.8c0,1.1,0,2.3-0.4,4.8c-1.7,11-2.2,16.6-1.6,25.8c0.5,7.9-1.8,25.3-2.2,28.5c-2.5,4.5-1.4,8.1-1.3,8.5
		l0.3,0.7l0.6,0.5c2,1.5,8.3,3.4,10.2,3.9l2.5,0.7l0.4-1.9l1.5,0.8l2.3,1.2l1.1-2.3l0-0.1l0.7,0.4l1.9,1l1.3-1.8
		c2.6-3.7,2.3-5.3,2.1-5.8c-0.5-2-1.2-4.7-1.5-5.9c1.2-5.6,6.1-9.6,8.7-11.4c1.4,1.7,2.1,3.1,3.1,5.1l0.3,0.7
		c0.2,0.5,0.3,1.5,0.4,2.4c0.1,1,0.2,2.2,0.5,3.3c0.7,2.3,3.9,4.9,7.5,6.1c2.9,1,7.6,1.1,8.1,1.1l4.4,0.1l-0.7-1.3l0.5,0.1l4.3,0.2
		l-0.3-1l0.7-0.3c1.3-0.6,3-2.8,1.5-6.7c-0.7-1.8-2.9-3.4-6.2-5.5c-0.3-0.2-0.7-0.5-1-0.7c0.4-2,1.1-5.3,1.4-7.5
		c1.1-10.7,1.8-19.7,1.4-32.4l3.5-3c0.6-0.5,3.9-3.4,5.2-5.6C136.5,107.6,136.8,103.4,136.6,98.5"/>
	<path class="st1" d="M134.1,98.7c-0.2-4.8-3.2-14.2-6.5-19.5c-3.3-5.2-8.6-13.1-11-15.7c-0.7-0.7-2.1-2.5-3-3.7
		c0,0-1.4-3.3-1.7-8.4c-0.3-6.2,1.2-8.1,1.2-8.1c4.8-5.3,7.1-10.9,7.7-13.9c0.2-1,0.3-2.4,0.4-3.7c-0.5-0.1-2.3-0.5-3-1.3
		c-0.9-0.9-1.9-2.5-1.3-3.1c0.3-0.3,1.1-0.9,1.8-1.4c-0.2,0-0.4-0.1-0.5-0.1c-1.3,0-2.7,0.6-3.7,0.7c-1.6,0.2-6,2.6-6,2.6
		s-2.7-0.7-4.8-0.7c-0.8,0-1.4,0.1-1.9,0.4c-1.5,1.1-9.2,5.5-10.5,6.8c-0.2,0.2-0.5,0.3-0.7,0.3c-1.2,0-2.9-1.2-4.2-1.2
		c-0.5,0-1,0.2-1.2,0.9c-0.9,2.7-0.9,4.7,2.5,8.6c0,0-4.4,6.6-6.2,20.6c-7.7,11.9-11,23.2-11.4,31.5c-0.9,12.3,3.7,13.2,6,13.8v0
		c2.1,0.9,4.1,2,6.1,3c1,0.5,2,1,3.1,1.8c1.1,0.7,1.9,1.6,2.7,2.6c1.5,1.9,2.6,4,4.2,5.2c0.4,0.3,0.7,0.5,1.1,0.7
		c0.2,0.1,0.4,0.2,0.6,0.2c0.2,0,0.5,0.1,0.8,0.1l2,0.3l0.1-1.4l0.1-1.8l1.6,0.8l1.6,0.8l0.1-1.3l0.1-1.9l1.6,0.8l0.3,0.2
		c0-1.9-0.2-3.9-0.7-5.7c-0.9-2.4-2-4.7-3.8-6.4c-0.9-0.8-1.9-1.5-2.9-2.1c-1.1-0.6-2.4-1.2-3.5-1.9c-2.3-1.4-4.5-2.9-6.5-4.8
		l-0.3-0.3l0.1-0.3c0.1-0.8,0.2-1.4,0.4-2.1c0.2-0.7,0.4-1.4,0.7-2c0.6-1.3,1.4-2.6,2.5-3.3c-0.9,1-1.4,2.3-1.7,3.6
		c-0.2,0.6-0.3,1.3-0.4,2c-0.1,0.5-0.1,1-0.1,1.6c2,1.4,4.1,2.7,6.3,3.9c1.1,0.6,2.3,1.2,3.5,1.8c1.2,0.6,2.4,1.5,3.5,2.4
		c1,1,1.9,2.1,2.7,3.4c0.7,1.3,1.3,2.5,1.8,3.8c0.5,1.4,0.7,2.8,0.9,4.2c0.1,1.4,0.1,2.8,0,4.2l-0.1,1.8l-1.6-0.8l-0.3-0.1l0,1.3
		l-0.1,1.9l-1.6-0.8l-1.6-0.8l-0.1,0.9l-0.1,1.3l-1.3-0.2l-3.4-0.5c-0.3-0.1-0.5-0.1-0.9-0.2c-0.3-0.1-0.7-0.2-1-0.3
		c-0.6-0.3-1.3-0.6-1.8-1.1c-1-0.9-1.8-1.9-2.5-2.8c-0.7-1-1.3-1.9-2-2.8c-0.7-0.9-1.4-1.6-2.2-2.2c-0.7-0.5-1.9-1.1-2.8-1.6
		c-1.8-1-3.6-2-5.5-2.9c-0.5,3.2,0.2,3.7-0.6,8.4c-1.6,10.4-2.2,16-1.6,25.2c0.6,9.1-2.3,29.5-2.3,29.5c-2.3,3.9-1.3,6.7-1.3,6.7
		c1.7,1.3,9.4,3.5,9.4,3.5l0.5-2.5l4.3,2.3l1.2-2.4l2.9,1.6c0,0,1.9-2.7,1.7-3.7c-0.7-2.6-1.7-6.4-1.7-6.4
		c1.6-9.2,11.7-14.8,11.7-14.8c2.8,3.1,3.6,4.8,5.1,7.9c0.9,1.7,0.5,4.3,1,6.1c0.4,1.2,2.9,3.4,5.9,4.5c2.6,0.9,7.3,1,7.3,1
		l-1.4-2.5l6,1.5l-0.8-1.9l3.9,0.9c0,0,1.4-0.7,0.2-3.5c-0.8-2-7.8-5.6-7.7-6.3c0.2-0.6,1.4-5.8,1.7-8.7c1.2-12.5,2.1-22.7,1-39.7
		l-0.1,0.1l-1.1,0.7l-0.5-1.3c-0.2-0.7-0.4-1.3-0.5-2c-0.1-0.6-0.1-1.4,0-2.1c0.2-1.2,0.4-2.4,0.6-3.6c0.6-2.4,1.2-4.5,1.5-6.8
		c-0.1-0.9-0.2-1.9-0.3-2.8c-0.1-1-0.3-2-0.5-3c-0.2-1-0.4-2-0.7-2.9c-0.3-1-0.6-1.9-1-2.9c0.6,0.8,1.2,1.7,1.7,2.6
		c0.5,0.9,0.9,1.9,1.3,2.8c0.4,1,0.7,2,1,3c0.3,1,0.5,2,0.6,3.1v0.2c-0.1,1.2-0.2,2.5-0.5,3.7c-0.2,1.2-0.5,2.4-0.7,3.5
		c-0.2,1.1-0.5,2.3-0.6,3.4c-0.1,0.5-0.1,0.9-0.1,1.5c0,0.1,0,0.2,0,0.3l0.1-0.1l0.3-0.1c0.1,0,0.3-0.1,0.3-0.1l0,0.1l0.9-0.3
		c0,1.4,0.1,4.7,0.1,4.7l2.5-2.2l0.3,3.2c0,0,3.5-3,4.6-5C134,106.9,134.3,103.4,134.1,98.7"/>
	<path class="st0" d="M86.9,30.6l1.1-0.1l2.5,1.6l-0.8,1"/>
	<path class="st2" d="M118.3,24.4c-0.5-0.5-1.1-1.3-1.3-1.9c-0.1,0.1-0.1,0.2-0.2,0.3c-1.1,6.2-3.8,11.3-11.8,18.7
		c-2.4,2.2-6,5.3-4.2,8.6c1.5,2.7,7.3,2.8,12.3,8.1c-0.4-1.5-0.9-3.8-1.1-6.7c-0.3-6.2,1.2-8.1,1.2-8.1c4.8-5.3,7.1-10.9,7.7-13.9
		c0.2-1,0.3-2.4,0.4-3.7C120.7,25.6,119,25.2,118.3,24.4"/>
	<path class="st0" d="M102.4,25.3c0,0.9,0.7,1.6,1.5,1.6s1.5-0.7,1.5-1.6c0-0.9-0.7-1.6-1.5-1.6C103.1,23.7,102.4,24.4,102.4,25.3"
		/>
	<path class="st2" d="M80.8,119.4c3,4,9.6,7.4,12.1,7.4c2.5,0,6.4-2.7,6.3-3.7c0-0.8-0.4-1.5-0.8-2.1l-0.7-0.1l-3.4-0.5
		c-0.3-0.1-0.5-0.1-0.9-0.2s-0.7-0.2-1-0.3c-0.6-0.3-1.3-0.6-1.8-1.1c-1-0.9-1.8-1.9-2.5-2.8c-0.7-1-1.3-1.9-2-2.8
		c-0.7-0.9-1.4-1.6-2.2-2.2c-0.7-0.5-1.9-1.1-2.8-1.6c-1.8-1-3.6-2-5.5-2.9c0,0.1,0,0.2,0,0.2v0.1c0,0.1,0,0.3-0.1,0.4
		c0,0.1,0,0.1,0,0.2c0,0.1,0,0.2,0,0.3c0,0.1,0,0.2,0,0.3v0.1c-0.1,1.7,0.1,2.8-0.3,5.7C77.3,115.5,79.4,117.6,80.8,119.4 M122.5,98
		c-0.1-0.9-0.2-1.9-0.3-2.8c-0.1-1-0.3-2-0.5-3c-0.2-1-0.4-2-0.7-2.9c-0.3-1-0.6-1.9-1-2.9c-2.4-5.4-5-10.4-5-10.4
		c3.7,10.4,5.3,13.6,6.3,28.2C121.7,102.1,122.2,100.1,122.5,98 M119.8,161.4c0.2-0.6,1.4-5.8,1.7-8.7c0.1-1.1,0.2-2.1,0.3-3.1v0
		c0-0.1,0-0.1,0-0.2c0.3-3.2,0.5-6.3,0.8-9.5v0c0.2-2.8,0.3-5.7,0.4-8.8v-0.5c0-0.4,0-0.9,0-1.3v-4.9c0-0.8,0-1.5-0.1-2.3v-0.5
		c0-0.8-0.1-1.6-0.1-2.5v-0.1c0-0.9-0.1-1.8-0.1-2.7c0-0.1,0-0.3,0-0.4c-0.1-0.9-0.1-1.9-0.2-2.8v0l-0.1,0.1l-0.7,0.4
		c0,0.3,0,0.6,0.1,1c0.5,11.9-1,20.3-2.8,25.8c-1.8,3.3-4,5.8-6.3,8.2c-4.4,4.5-12.6,5.2-12.6,5.2c2.8,3.1,3.6,4.8,5.1,7.9
		c0.9,1.7,0.5,4.3,1,6.1c0.4,1.2,2.9,3.4,5.9,4.5c2.6,0.9,7.3,1,7.3,1l-1.4-2.5l6,1.5l-0.8-1.9l3.9,0.9c0,0,1.4-0.7,0.2-3.5
		C126.7,165.7,119.7,162,119.8,161.4 M134.1,98.7c0-0.3,0-0.7-0.1-1c0-0.1,0-0.2,0-0.3c0-0.2-0.1-0.5-0.1-0.8c0-0.1,0-0.3-0.1-0.4
		c-0.1-0.3-0.1-0.5-0.2-0.8c0-0.2-0.1-0.3-0.1-0.5c-0.1-0.3-0.1-0.6-0.2-0.9c0-0.1-0.1-0.3-0.1-0.4c-0.1-0.3-0.2-0.6-0.3-0.9
		c0-0.2-0.1-0.3-0.1-0.4c-0.1-0.3-0.2-0.7-0.3-1l-0.1-0.3c-0.1-0.4-0.2-0.8-0.4-1.2c0-0.1,0-0.1-0.1-0.2c-0.2-0.5-0.3-1-0.5-1.4
		c0.3,2.9,0.4,9,0.2,11c-0.5,7.6-4.1,10.8-7.2,12.4l-0.4-0.1c0,0.5,0,1.1,0,1.7h0c0,1,0,1.7,0,1.7l2.5-2.2l0.3,3.2c0,0,3.5-3,4.6-5
		C134,106.9,134.3,103.4,134.1,98.7"/>
</g>
</svg>
