<svg xmlns="http://www.w3.org/2000/svg" viewBox="0 0 50 39.5" enable-background="new 0 0 50 39.5"><path fill="#240000" d="M48.523 10.632c-.37-.636-4.033-3.265-4.033-3.265s-2.242-2.89-4.33-3.432c-4.178-1.08-3.105 1.765-6.585.71-3.477-1.06-7.036.22-7.036.22s-1.613-2.66-4.944-3.447c-1.81-.43-5.086.513-4.56.542 1.185-.43 5.425 3.056 4.955 5.795-.3 1.717-1.495 3.113-2.457 3.192-1.335.11-5.017 2.87-5.017 2.87s2.77-2.054 5.233-2.722c2.455-.67 2.856-.155 5.12.095 2.253.244 1.275 1.806 1.582 2.656.307.852-.71 3.502.882 3.556 1.593.057 2.877-5.273 4.055-5.316 1.175-.043 4.723-3.11 6.653-3.044 1.928.072 1.12 1.636 1.12 1.636l-1.64 1.285-2.526 2.685s-.042.088-.104.243c1.663-1.88 3.193-3.28 4.31-3.727 1.268-.5 4-.562 4-.562l5.58 1.368c0 .002.105-.697-.26-1.335zm-27 25.146s-3.23.802-3.05.186c.18-.617-.67-2.766-.67-2.766s2.534-5.29 1.162-6.766c-1.38-1.474 2.156-4.04 1.635-5.99-.527-1.948 3.095-4.51 2.544-5.536-.324-.606-3.243-.873-5.597-.995-.05.56-.247 2.018-1.015 2.555-.964.67-4.146 11.332-4.415 12.26C10.33 30.75-.205 32.745 1.194 33.03c1.397.28 13.847-.687 13.847-.687l2.316.78.885 1.442.116 2 3.742 1.906.655-.19.84-.005.47-.327 1.22-.408-3.163-1.885-.39-1.758-.114-.074-.094 1.955zm3.92-1.612l-1.756 1.023-1.767-1.14 1.198 1.763.93.132 3.622.515.66-.553.807-.352-.287-.6.27-.482-3.21-.445s-1.217-.56-2.035-1.243c.63.743 1.568 1.38 1.568 1.38z"/><path fill="#fff" stroke="#240000" stroke-width=".425" d="M37.525 11.965l1.64-1.285s.808-1.564-1.12-1.636c-1.93-.066-5.478 3-6.654 3.044-1.176.043-2.46 5.373-4.053 5.316-1.593-.054-.576-2.705-.882-3.556-.307-.85.67-2.413-1.584-2.656-2.26-.25-2.662-.766-5.12-.095-2.46.667-5.23 2.723-5.23 2.723s1.376.01 3.03.095c2.352.122 5.27.39 5.595.995.552 1.026-3.07 3.587-2.544 5.536.52 1.952-3.015 4.516-1.634 5.99 1.372 1.476-1.163 6.766-1.163 6.766s.85 2.15.67 2.766c-.178.616 3.21-.24 3.21-.24l-.268-1.85.282.18 1.77 1.142 1.826-1.157s-.938-.64-1.575-1.383c-.194-.224-.35-.462-.457-.694-.07-.175-.116-.344-.11-.51.03-.397.54-1.016 1.177-1.643 1.1-1.076 2.568-2.175 2.568-2.175s4-4.265 5.088-6.2c.717-1.274 2.475-5.487 2.912-6.54.062-.156.104-.244.104-.244l2.526-2.69z"/><path fill="#fff" d="M40.774 7.837c-.004.16-.16.28-.35.276-.184-.007-.336-.14-.328-.3.002-.162.157-.288.35-.282.185.01.335.145.328.308z"/></svg>