<?xml version="1.0" encoding="utf-8"?>
<!-- Generator: Adobe Illustrator 19.1.0, SVG Export Plug-In . SVG Version: 6.00 Build 0)  -->
<svg version="1.1" id="Layer_1" xmlns="http://www.w3.org/2000/svg" xmlns:xlink="http://www.w3.org/1999/xlink" x="0px" y="0px"
	 viewBox="0 0 200 200" style="enable-background:new 0 0 200 200;" xml:space="preserve">
<style type="text/css">
	.st0{fill:#FFFFFF;}
	.st1{fill:#BCBDC0;}
</style>
<g>
	<path d="M142.7,139.3C142.7,139.4,142.7,139.4,142.7,139.3L142.7,139.3L142.7,139.3 M136.2,43.1c-1.6,0-3.3,0.1-4.9,0.2
		c-6.5,0.5-8.1,1.6-10.3,4c-0.4,0.4-0.7,0.8-1.3,1.3l-0.9,0.9c-3.3,3-8.3,7.5-9.1,13c-0.5,3.6,0.4,7.1,2.2,9.1
		c-1.1,1.4-2,2.7-2.8,3.9c-5.3,7.4-6.4,9-22.9,13.4c-18.4,4.9-31.7,14-39.5,26.8l-1.2,2c-5.3,8.9-7.4,12.1-12.6,12.5
		c-7.6,0.6-10.3,0.9-11.4,3.1l0,0c-1.5,0.5-3.1,1.4-3.3,3.3c-0.1,1.2,0.4,2,0.8,2.4c1.1,1.2,2.7,1.4,6.8,1.4c2.1,0,5.1-0.1,9.3-0.2
		c9.9-0.3,14-2.2,17.6-3.9c1.4-0.7,2.6-1.3,4.2-1.8c0.6-0.2,1.8-0.4,4.1-0.4c7.4,0,19.2,2.4,26,4.1c0.2,0.9,0.4,1.7,0.7,2.5
		c-0.2,0.2-0.4,0.3-0.5,0.5c-0.9,0.8-2.1,1.8-4.9,2.7c-1.6,0.5-4.1,1-6.6,1.5c-8.5,1.7-12.4,2.8-13.6,5.3c-0.5,1-0.5,2,0,3
		c1,2.1,3.9,2.9,10.6,2.9c8,0,19.7-1.2,28.1-2.4c5-0.7,9.2-3.5,12.1-8c4.2,1.3,8.3,2,12.2,2c6.3,0,11.9-1.7,16.9-5
		c0.1,0.2,0.3,0.4,0.5,0.6c2.5,2.7,7,4.2,13.3,4.4c0.8,0,1.6,0,2.4,0c9.6,0,20.6-2,23.1-5.8c0.7-1.1,0.8-2.3,0.3-3.4
		c-1-2.3-3.9-2.3-5.5-2.3c-0.9,0-1.9,0-3,0.1c-1.3,0-2.8,0.1-4.5,0.1c-1.7,0-3.2-0.1-4.7-0.2c-0.4-6.1-1.6-16-5.1-19.7
		c1.5-5.4,2.4-11.5,2.9-18c1.1-14.3-0.9-20.4-2.7-25.9c-1-3.2-1.9-6-2-10.3C156.3,43.1,141.2,43.1,136.2,43.1"/>
	<path class="st0" d="M133,117.2c0.4,0,1-0.7,1.3-1.8c4.9-15.9,4.2-30.1,4.3-42.3c-1.9-0.3-3.5-0.5-6.1-3.1
		c0.6,10.6,0.4,32.6-0.1,45.3C132.3,116.6,132.6,117.2,133,117.2"/>
	<path class="st0" d="M117.8,68.1c-0.5,0.5-1,1.4-1.2,3c-0.8,5.9-3.8,30.1,5.2,44.7c0.4,0.6,0.8,0.9,1.1,0.9c0.4,0,0.7-0.5,0.5-1.3
		c-3.4-12.5-3.9-26.1-1.8-39.8C118.8,73.6,117.8,70.3,117.8,68.1"/>
	<path class="st0" d="M179,139.9c-0.3-0.7-1.5-0.9-3.3-0.9c-1,0-2.1,0-3.4,0.1c-1.3,0.1-2.7,0.1-4.1,0.1c-2.2,0-4.6-0.1-7-0.5
		c-0.2-4.2-1.7-20.1-5.7-20.8c0,0,0,0,0,0c0,0,0,0,0,0c0,0,0,0,0-0.1c1.6-5.5,2.7-11.9,3.3-19.1c0.2-3,0.3-5.7,0.3-8v0.1
		c-0.2-15.2-4.8-17.7-5-28c-0.2-14.6-8.8-17.3-18-17.3c-1.6,0-3.2,0.1-4.7,0.2c-7.8,0.6-7.2,2-10,4.7c-2.8,2.6-8.5,7.3-9.3,12.4
		c-0.6,3.7,0.8,6.9,2.6,8c0.2-1.8,0.8-3.1,1.8-4c0.2-0.6,0.4-1.2,0.7-1.7c0.9-1.9,2.6-3.7,5-4.3c0.5-0.1,1-0.2,1.5-0.2h0.2
		c0.1,0,0.1,0,0.2,0c0.1,0,0.1,0,0.2,0c0,0,0.1,0,0.1,0c0.1,0,0.3,0,0.5,0.1l0.7,0.2c1.5,0.6,2.1,1.4,2.9,2.1l3.9,4.5
		c1.3,1.3,2.7,2.6,4.3,3.2c0.8,0.3,1.7,0.4,2.6,0.5c0,0,0,0,0.1,0c0.1,0,0.4-0.1,0.6-0.1c0.1-0.1,0.2-0.1,0.4-0.2
		c0.4-0.2,0.7-0.4,1-0.7c2.6-2.5,3.2-6.7,2.5-10.6c0.9,1.7,1.3,3.7,1.2,5.7c-0.1,2.2-0.9,4.4-2.4,6.2c-0.4,0.4-0.8,0.8-1.4,1.1
		c-0.2,0.2-0.6,0.3-0.9,0.4v0.2c0,1.5,0,2.9,0,4.5c0,9.6,0,20.2-2.6,31.9c-0.5,2.1-1,4.3-1.7,6.5c-0.6,2-1.7,3.2-3.1,3.2
		c-0.6,0-1.2-0.2-1.6-0.7c-0.6-0.7-0.9-1.7-0.8-3.2c0.3-7.5,0.5-19.2,0.5-29.5c0-6-0.1-11.6-0.4-15.6l-0.1-1.2l-3.7-4.3
		c-0.6-0.6-1.4-1.3-1.8-1.5l-0.7-0.2c0.1,0-0.3,0-0.5,0c-0.1,0-0.3,0-0.4,0c-0.3,0-0.5,0-0.8,0c-0.1,0-0.2,0-0.2,0
		c-2,1.4-2.9,3.6-2.6,5.6c0.1,0.4,0.2,0.8,0.3,1.2c0,0.1,0.1,0.3,0.1,0.4c0.4,1.4,1.3,2.5,2.4,3.6c0.3,0.3,0.5,0.5,0.8,0.8l0,0l0,0
		c0.9,0.8,1.8,1.5,2.8,2.3c-1-0.2-2-0.5-3-0.9c-2.1,13.6-1.5,27,1.7,38.8c0.4,1.4-0.1,2.3-0.4,2.7c-0.4,0.5-0.9,0.8-1.5,0.9
		c-0.1,0-0.2,0-0.4,0c-1,0-2-0.6-2.7-1.7c-7.9-12.9-7-32.6-5.6-44.3c-3.1,4.1-4.9,6.9-6.9,9.2c-2.2,2.5-4.5,4.2-8.8,6
		c-2.9,1.2-6.7,2.3-12,3.8c-21,5.7-32,15.9-38,25.7c-3,4.9-5.1,8.7-7.4,11.3c-2.3,2.6-4.8,4.1-8.5,4.4c-2.1,0.2-3.8,0.3-5.2,0.5
		c-1.4,0.2-2.4,0.4-3.1,0.6c-0.4,0.1-0.6,0.3-0.8,0.4c-0.1,0.1-0.1,0.2-0.2,0.3h0.1l4.8,0.1l-4.7,0.7c-0.8,0.1-1.5,0.3-2.2,0.6
		c-0.2,0-0.3,0.1-0.4,0.2c-0.3,0.2-0.6,0.4-0.6,0.7c-0.1,0.9,0.6,1.2,5.1,1.2c2.1,0,5.1-0.1,9.2-0.2c13.1-0.3,15.1-3.6,21.1-5.6
		c0.3-0.1,0.6-0.2,0.9-0.2c-0.2,0.1-0.4,0.1-0.5,0.2c1.2-0.3,2.8-0.5,4.6-0.5c7.3,0,18.6,2.3,25.8,4c0-1.1,0.1-2.2,0.3-3.3h0
		c0.2-1.1,0.4-2.2,0.8-3.3c1-2.7,3.3-5.1,6-5.7c-2.6,1.1-4,3.7-4.5,6.1c-0.6,2.3-0.5,4.7-0.3,7.1c0.4,2.6,1.2,4.7,1.8,5.3h-0.1
		c-2.1,0-2.2,2.5-8,4.3c-5.8,1.8-20.3,3.3-18.7,6.3c0.5,1.1,3.8,1.5,8.4,1.5c8,0,20-1.3,27.7-2.3c5.4-0.8,9-4.2,11.1-8.3
		c1-2,1.7-4.2,2-6.5c0.3-2.3,0.4-4.7-0.2-7.1c1.2,2,1.5,4.5,1.5,6.9h0c0,0.1,0,0.2,0,0.3v0c-0.1,2.2-0.7,4.5-1.5,6.6
		c4.1,1.3,8,2,11.8,2c6.6,0,12.6-2,17.7-6.2c0,0,0.1-0.1,0.1-0.1c0,0,0,0,0,0v0c0,0-0.3,5.9,12.9,6.3c0.8,0,1.5,0,2.3,0
		C170,145.7,180.1,142.6,179,139.9"/>
	<path class="st1" d="M145.1,65.2c-0.1,2.2-0.9,4.4-2.4,6.2c-0.4,0.4-0.8,0.8-1.4,1.1c-0.2,0.2-0.6,0.3-0.9,0.4v0.2
		c0,1.5,0,2.9,0,4.5c0,9.6,0,20.2-2.6,31.9c-0.1,4.9-0.1,9.5-0.1,13.3c0,1.5,0.6,2.2,1.3,2.2c0.8,0,1.7-0.8,2-2.1
		c4.2-17.3,2.6-32.7,2.2-46C144.1,72.5,145.4,69.2,145.1,65.2 M123.5,62.9c-0.3,0-0.5,0-0.8,0c-0.1,0-0.2,0-0.2,0
		c-2,1.4-2.9,3.6-2.6,5.6c0.1,0.4,0.2,0.8,0.3,1.2c0,0.1,0.1,0.3,0.1,0.4c0.4,1.4,1.3,2.5,2.4,3.6c0.3,0.3,0.5,0.5,0.8,0.8l0,0l0,0
		c0.9,0.8,1.8,1.5,2.8,2.3c-1-0.2-2-0.5-3-0.9c-2.1,13.6-1.5,27,1.7,38.8c0.4,1.4-0.1,2.3-0.4,2.7c-0.4,0.5-0.9,0.8-1.5,0.9
		c0.5,1.3,1.1,2.6,1.8,3.8c0.3,0.5,0.8,0.8,1.3,0.8c0.9,0,1.7-0.7,1.5-1.7c-2.8-11.7-3.6-24.8-2.4-37.7c1.2,0.9,2.7,1.4,4.3,1.7
		c0.5,0.1,1,0.2,1.4,0.4c0-6-0.1-11.6-0.4-15.6l-0.1-1.2l-3.7-4.3c-0.6-0.6-1.4-1.3-1.8-1.5l-0.7-0.2c0.1,0-0.3,0-0.5,0
		C123.8,62.9,123.6,62.9,123.5,62.9"/>
	<path class="st1" d="M68.5,130.5c-4.2,0-8.1,0.4-11.6,1.5c-0.2,0.1-0.4,0.1-0.5,0.2c1.2-0.3,2.8-0.5,4.6-0.5c7.3,0,18.6,2.3,25.8,4
		c0-1.1,0.1-2.2,0.3-3.3h0C80.6,131.3,74.3,130.5,68.5,130.5"/>
	<path class="st1" d="M159.2,90.7L159.2,90.7c-1.1,15.5-12.1,44.2-33,46.3c-1.3,0.1-2.6,0.2-4,0.2c-2.4,0-5-0.2-7.6-0.4h0
		c0,0.1,0,0.2,0,0.3v0c-0.1,2.2-0.7,4.5-1.5,6.6c4.1,1.3,8,2,11.8,2c6.6,0,12.6-2,17.7-6.2c0,0,0.1-0.1,0.1-0.1c0,0,0,0,0,0v0
		c0,0-0.3,5.9,12.9,6.3c0.8,0,1.5,0,2.3,0c12.2,0,22.3-3.2,21.1-5.8c-0.3-0.7-1.5-0.9-3.3-0.9c-1,0-2.1,0-3.4,0.1
		c-1.3,0.1-2.7,0.1-4.1,0.1c-2.2,0-4.6-0.1-7-0.5c-0.2-4.2-1.7-20.1-5.7-20.8c0,0,0,0,0,0c0,0,0,0,0,0c0,0,0,0,0-0.1
		c1.6-5.5,2.7-11.9,3.3-19.1C159.1,95.7,159.2,93,159.2,90.7"/>
	<path d="M127,48.8c-1.2,0-2.4,0.3-3.2,0.8l1.8,1.8l4.5-1.5C129.6,49.2,128.4,48.8,127,48.8"/>
	<path d="M143,49.2c-1,0-1.7,0.8-1.7,1.8c0,1,0.8,1.7,1.7,1.7c1,0,1.8-0.8,1.8-1.7C144.7,50,144,49.2,143,49.2"/>
	<path d="M139.6,66.4c-0.4,0-0.7,0.3-0.7,0.7c0,0.3,0.3,0.6,0.7,0.6c0.3,0,0.6-0.3,0.6-0.6C140.2,66.7,139.9,66.4,139.6,66.4"/>
	<path d="M140.6,63.3c-0.4,0-0.7,0.3-0.7,0.7c0,0.4,0.3,0.7,0.7,0.7c0.3,0,0.6-0.3,0.6-0.7C141.3,63.6,141,63.3,140.6,63.3"/>
	<path d="M137.3,64.1c-0.3,0-0.7,0.3-0.7,0.6c0,0.4,0.3,0.6,0.7,0.6c0.3,0,0.7-0.3,0.7-0.6C138,64.3,137.7,64.1,137.3,64.1"/>
</g>
</svg>
