<?xml version="1.0" encoding="utf-8"?>
<!-- Generator: Adobe Illustrator 20.0.0, SVG Export Plug-In . SVG Version: 6.00 Build 0)  -->
<svg version="1.1" id="Layer_1" xmlns="http://www.w3.org/2000/svg" xmlns:xlink="http://www.w3.org/1999/xlink" x="0px" y="0px"
	 viewBox="0 0 370.3 370.3" style="enable-background:new 0 0 370.3 370.3;" xml:space="preserve">
<style type="text/css">
	.st0{opacity:0.25;}
</style>
<path class="st0" d="M185.2,370.4C83.1,370.4,0,287.3,0,185.2S83.1,0,185.2,0c102.1,0,185.2,83.1,185.2,185.2
	S287.3,370.4,185.2,370.4z M185.2,0.8C83.5,0.8,0.8,83.5,0.8,185.2c0,101.7,82.7,184.4,184.4,184.4s184.4-82.7,184.4-184.4
	C369.6,83.5,286.9,0.8,185.2,0.8z"/>
<path class="st0" d="M185.2,351.4C93.6,351.4,19,276.8,19,185.2S93.6,19,185.2,19c91.6,0,166.2,74.5,166.2,166.2
	S276.8,351.4,185.2,351.4z M185.2,19.8C94,19.8,19.8,94,19.8,185.2c0,91.2,74.2,165.4,165.4,165.4s165.4-74.2,165.4-165.4
	C350.6,94,276.4,19.8,185.2,19.8z"/>
<rect x="184.8" y="0.4" class="st0" width="0.8" height="18.9"/>
<rect x="184.8" y="351" class="st0" width="0.8" height="19"/>
<rect x="351" y="184.8" class="st0" width="19" height="0.8"/>
<rect x="0.4" y="184.8" class="st0" width="18.9" height="0.8"/>
<rect x="299.6" y="60.8" transform="matrix(0.7065 -0.7078 0.7078 0.7065 47.4199 236.7326)" class="st0" width="18.9" height="0.8"/>
<rect x="51.7" y="308.7" transform="matrix(0.7078 -0.7065 0.7065 0.7078 -200.4803 133.5674)" class="st0" width="19" height="0.8"/>
<rect x="308.7" y="299.6" transform="matrix(0.7071 -0.7071 0.7071 0.7071 -128.0334 309.0841)" class="st0" width="0.8" height="19"/>
<rect x="60.8" y="51.7" transform="matrix(0.7071 -0.7071 0.7071 0.7071 -25.3498 61.1999)" class="st0" width="0.7" height="19"/>
</svg>
