<svg xmlns="http://www.w3.org/2000/svg" viewBox="0 115.9 595.3 610.1"><path d="M429.1 429.1c0-.7.7-22.1-2.7-39.5-2.4-12.3-6.1-22-8.4-28.4-.9-2.6-1.8-4.7-2-6.1-.9-3.8-1.5-12.1-1.8-17.1l-.1-3c-.4-7.1-2.3-25.3-9.4-40-6.5-13.3-8.5-22.9-9.4-29-.1-.9-.3-2-.4-3.4-.4-5.3-.7-12.7-.7-18.3V243c3.6-4 3.2-10.9 2.3-17.1-.1-1.2-.5-2.7-.8-4.2-.4-2.3-1.2-6.3-1.2-7.5 0-.4 0-.4.4-1.5.7-1.6 1.8-4 1.8-8 0-5.1-1.5-8.1-4-11.3-3.4-4.4-10.1-7.1-21-8.6-3.9-.5-7.8-.8-11.2-.8-9.6 0-12.9 2-14.6 3.5-1.8 1.6-2.8 3.1-3.6 4.7-.5.5-.9 1.1-1.3 1.6h-14.5c-10.1 0-15.5.3-19.3 1.9-.1 0-13.9 7-20.4 10.4-1.8.9-3 1.6-3.1 1.8-3.2 2.3-6.7 5.4-6.7 11.7 0 4.4 1.8 7.1 2.8 8.8.1.1.3.3.4.5-.3 1.2-1.1 4-1.6 5.5s-.9 3-1.2 4c-2.2 8.5-1.1 14.4 3.1 17.8v.3c0 3.6-.1 10-.8 14.8-.1 1.6-.4 3.1-.7 4.2-.1.5-.3 1.2-.5 1.9l-39.4-5.9-96.8-27.4-15.4-4.3-74.4-12.1-20.8 37.7-1.3 71 51.3 9 13.1 2.3 101.2 17 45.3 5.5c-.7 1.3-1.3 2.7-2 4l-164.4-13-49.7 6.6-1.1 8.4-5.9 43.1L31.5 487l71.2-3.2 10.8-.5 78-7.4 37.6-.5v5.5l-13.2 1.1-111.2 22.8-17.5 1.1-38.8 2.3-4.2 53.5-.4 5.9-.5 7.5 28.8 45.6 106.6-25.1 1.5-.3 52.2-7.4c1.8 5 4.3 11.1 9.2 15.2 1.1.9 2.2 1.8 3.5 2.4 1.8.9 16.2 9.2 19.1 10.9 2.4 1.3 5.1 2.3 8.2 3 1.3.3 2.7.4 4.3.7v2.6c0 1.2 1.3 2.3 3 2.3H292c1.6 0 3-1.1 3-2.3V621c3.5.1 7.5.1 12.1.1 1.1 2.7 2.4 5 4 7 4.7 8.4 12.9 12.3 25.5 12.3 6.1 0 13.5-.8 23.2-2.7 2.7-.5 5.7-1.1 8.8-1.8 27.4-5.8 36.9-10.9 42.7-13.9l1.1-.5c5.3-2.7 8.5-6.7 10.8-12.1 1.5-3.5 2.6-7.4 3.5-11.9 2.6-12 2.3-27.9 2.3-28.6l.1-139.8z"/><path fill="#F00" d="M295 621v1.6c0 1.2-1.3 2.3-3 2.3h-8c.8 1.3 1.5 2.7 2.3 4 8.8 14.4 19.5 26.1 30.6 36.4 11.1 10.1 22.4 18.7 32.9 27.1 10.4 8.2 19.7 16.2 26.7 25.1.5-10.9-1.2-22.1-4-33.4-2.8-11.3-6.5-23-9.8-35-1.1-3.8-2-7.5-2.8-11.3-9.7 1.9-17.1 2.7-23.2 2.7-12.5 0-20.9-3.9-25.5-12.3-1.6-2-3-4.3-4-7-4.6-.1-8.7-.2-12.2-.2m-62.7-33.1l-52.2 7.4c-.5 5.9-1.1 11.7-1.6 17.5-1.5 16.6-3 33-5.9 49.1-3.1 16.2-7.8 31.9-15.9 47.7 16.8-8.6 29.1-19 38.8-30.3 9.6-11.3 16.7-23.5 23.3-35.8 6.5-12.3 12.5-24.7 19.9-36.3.9-1.3 1.8-2.8 2.7-4.2-4.7-4.1-7.3-10.2-9.1-15.1M44.1 561.7c-3 2.8-6.1 5.4-9.3 7.7 2.8-.4 5.9-1.1 8.9-1.9l.4-5.8M229 475.5l-37.6.5-78 7.4-10.8.5c-3.4 4.6-6.7 9.3-9.8 13.9-1.9 2.7-3.8 5.4-5.5 8.1l17.5-1.1L216 482l13.2-1.1-.2-5.4M81.7 345.3c-8.8 3.6-17.7 7.4-27 11.1-14.4 5.7-29.6 10.9-47.2 15 5.4 1.9 10.9 3.4 16.3 4.9l1.1-8.4 49.7-6.6 164.3 13.1c.7-1.5 1.3-2.8 2-4l-45.3-5.5-101.2-17-12.7-2.6m25.6-149.9c2.4 11.7 8.6 21.7 16.7 30.9 5.4 6.1 11.6 12 18.2 17.8l96.8 27.4 39.4 5.9c.1-.7.4-1.3.5-1.9.3-1.1.5-2.6.7-4.2-10.8-11.6-22.5-19.8-35-26.1-13.5-6.7-27.8-11.2-42.7-15.2-15.1-4-30.6-7.7-46.4-12.8-16-5.2-32.2-11.8-48.2-21.8m350.4-29.6c-9.7 11.1-16.3 21.4-21.6 31.1-5.3 9.8-9 19-13.3 28-4.3 8.9-9.2 17.7-16.6 26.3-3.2 3.9-7 7.8-11.5 11.7.1 1.2.3 2.4.4 3.4.9 5.9 2.8 15.5 9.4 29 7.1 14.7 9 32.9 9.4 40l.1 3c.3 5 .7 13.3 1.8 17.1.3 1.2 1.1 3.5 2 6.1 2.4 6.5 5.9 16.2 8.4 28.4 3.5 17.4 2.7 38.8 2.7 39.5v139.9c0 .7.3 16.6-2.3 28.6-.9 4.4-2 8.4-3.5 11.9 7.4 1.6 14.7 2.6 22.1 3.2 14.3 1.3 28.2 1.6 41 3.1 12.7 1.5 24.4 4.4 34.4 10.9-3.5-11.9-9.6-21.2-17.1-29.2-7.5-8.1-16.4-15-25.5-22-9-7-18.1-14.3-25.6-23-7.7-8.8-13.9-19.1-17.4-32.2.9 0 1.9 0 2.7.1h7.9c15.5-.4 28.8-3.4 40.8-7.5 12-4.2 22.8-9.7 33.3-15.4 10.5-5.7 20.8-11.6 31.8-16.6 10.9-5 22.6-9.2 36-11.3-7.5-8-16.4-12.5-26.3-15.6-9.8-3.1-20.6-4.6-31.5-6.1-11.1-1.5-22.5-3.1-33.8-6.5-11.3-3.4-22.4-8.5-32.5-17.1 15.9-6.7 27.2-16.4 35.8-27.9 8.6-11.3 14.8-24.4 20.4-37.9 5.5-13.3 10.4-27.1 16.6-39.9 6.2-12.7 13.6-24.4 24.1-33.6h-3.4c-9.4 0-18.7 2.8-27.8 7.1-9.8 4.7-19.7 11.3-29.6 18.3-10 7-20.2 14.3-31 20.5s-22.1 11.2-34.1 13.5c10.6-22.9 16.8-44.1 20.5-63.2 3.5-19.1 4.4-36.4 4.2-51.5-.3-15.1-1.5-28.2-2.3-38.8-.9-11.6-1-19.9.9-25.4m-173.6-41.4c-4 10.6-4.7 23.3-3.8 36.8s3.5 27.6 5.8 41.5c.1 1.1.4 2.3.5 3.4 6.3-3.4 20.2-10.4 20.4-10.4 3.8-1.6 9.2-1.9 19.3-1.9h2.8c-9.7-11.6-19.4-22.6-27.5-33.8-8.5-11.6-14.9-23.4-17.5-35.6"/><path fill="#BCBEC0" d="M264.7 607.4c1.8 1.9 3.5 3.2 5.8 4.4 1.1.4 2.2.7 3.2.8 5.7 1.1 13.3 1.5 31.5 1.6-18.2-.1-25.9-.5-31.5-1.6-1.2-.3-2.3-.5-3.4-.9-2.1-1.1-3.9-2.5-5.6-4.3m-10-25.3l-15.2 4.7h-.1c2.4 6.6 5.1 10.5 9.2 12.8.8.4 4.4 2.6 8.5 4.9-.4-.9-.7-2-1.1-3-2-6.5-2.2-13-1.3-19.4 0 .1 0 .1 0 0m-.5-106.9l-18.3.3v5.1l18.3-1.5v-3.9M248.5 371c-.7 1.2-1.3 2.4-2 3.6l17.8.7c.4-.8.8-1.6 1.1-2.3l-16.9-2m52.4-164.4c-6.1 3.1-13.1 6.7-13.3 6.9-2.8 2-3.9 3.2-3.9 6.2 0 4.4 3.2 5.4 3.2 9 0 2.6-2.3 8.5-3.1 11.6-1.6 6.1-1.1 9.6 1.1 10.8 2.2 1.2 2.3 2.2 2.3 5.4s-.1 14.8-1.6 20.8c-.1.4-.3.8-.3 1.2l16 2.4c.5-1.5 1.1-3 1.5-4.4 2.8-8.6 3-17.5 2.8-26.4-.1-2 .1-5-.7-5.5-.3-.5-1.3-.7-2.7-2.2-.9-1.3-1.3-2.7-1.5-4-.4-5.1 1.3-9.7 2.4-13.9.5-2 1.2-4.4 1.2-5.8-.1-.9-.3-1.2-.8-2s-1.3-1.8-1.9-3.1c-.7-1.3-.9-2.8-.9-4.4 0-.9.1-1.8.2-2.6"/><g fill="#FFF"><path d="M272.4 374l-6.9-.8c-.4.8-.8 1.5-1.1 2.3l7.1.3c.3-.7.6-1.3.9-1.8zM260.8 475.1l-6.6.1v3.9l6.6-.5M338.4 202.5v-1.8h-12.5c-8.8 0-14.6.3-17 1.6-.1 0-.1.1-.3.1-.3.1-.4.3-.7.4-.8.8-1.5 1.8-1.9 3-.3.9-.4 1.5-.4 2.8v.3c0 .5.1 1.3.4 1.9.3.7.8 1.5 1.5 2.7.3.5.7 1.2.9 2 .3.5.4 1.8.4 2.2v.1c-.1 3.2-1.1 5-1.8 7.3-1.5 4.2-3 8.2-3 12v.4c0 .9.3 1.8.7 2.3 0 .3 1.3.8 2.4 2.2.9 1.2 1.1 2.4 1.1 3.5v2c0 3.4-.1 15.6-1.8 22-.8 3-1.9 6.7-4 11.2l6.7.9c1.9-4.2 2.8-7.8 3.6-10.6 1.9-7.4 1.9-20.9 1.9-23.5 0-3.4 0-7.4-4.6-10.6 0-.7.1-2.3.8-4.9.3-.9.7-2.2 1.1-3.5 1.5-4.6 2.4-7.7 2.4-10.4v-.7c-.1-3.5-1.8-5.8-2.7-7.3-.8-1.2-.8-1.2-.8-1.6v-.1c.1-.1.5-.4 1.1-.8 2-.7 9.4-.8 13.1-.8h13.5c.2-.9-.1-2.4-.1-4.3zM303.5 597.2c-20.2 0-31.5-.1-38.7-.5-.4-.9-.8-2-1.2-3.1-1.3-4-2.2-9-2.6-13.3l-6.3 2v.1c1.2 6.2 2.7 12.3 5.1 17.7 1.2 2.7 2.8 5.1 4.6 7.3l.1.1c1.8 1.9 3.5 3.2 5.7 4.3 1.1.4 2.2.7 3.4.9 5.7 1.1 13.3 1.5 31.5 1.6-.4-2-.7-4.3-.9-6.5-.3-3.8-.6-7.4-.7-10.6z"/></g><path fill="#808285" d="M303.5 567.1L261 580.2c.4 4.3 1.1 9.3 2.6 13.3.4 1.1.8 2.2 1.2 3.1 7.1.4 18.5.5 38.7.5-.3-6.2-.1-11.1-.1-11.3l.1-18.7m.7-92.6l-43.4.5v3.5l43.4-3.4v-.6M272.4 374c-.3.5-.5 1.1-.9 1.8l21.8.8-20.9-2.6m53.2-156.1h-10.8v.7c0 2.7-.9 5.8-2.4 10.4-.4 1.3-.8 2.6-1.1 3.5-.7 2.7-.8 4.2-.8 4.9 4.6 3.2 4.6 7.3 4.6 10.6 0 2.6-.1 16-1.9 23.5-.7 2.8-1.8 6.3-3.6 10.6l15 2.3 8.8 2.4c1.9-4.3 3.1-8.1 4-11.3-1.1-7.1-1.2-16.7-1.2-18.9 0-3.1 0-7 4.3-10.1v-.3c0-.8-.1-2.2-.7-4.3-.3-.9-.7-2-1.1-3.4-1.3-4.3-2.3-7.3-2.3-9.8 0-3.6 1.6-5.9 2.6-7.4.1-.1.1-.3.3-.4 0-.3.1-.5.1-.8 0-.3.1-.5.1-.7-.1-.1-.4-.4-.9-.7-2.1-.8-9.9-.8-13-.8"/><path fill="#FFF" d="M72 250.4l-12.3 69.5 13.9 2.2 5-28.6 15.2 2.6 2.2-11.7-15.3-2.9 2.9-16.4 20.8 3.9 2.2-12-34.6-6.6M128.3 292c-.4 0-.8 0-1.3-.1l-6.9-1.2 3.2-18.6 7.4 1.5c.8.1 1.5.4 2 .8s.9.8 1.2 1.3c.3.5.4 1.2.5 1.9 0 .7 0 1.5-.1 2.3l-1.2 7.1c-.1.9-.4 1.9-.8 2.6-.4.7-.8 1.2-1.3 1.6-.5.4-1.1.7-1.9.8h-.8m-16-33.9l-12 68.3 13.3 2.2 4.9-27.6 7 1.2c.9.1 1.8.5 2.3.9.7.4 1.1 1.1 1.5 1.8s.5 1.5.7 2.3c.1.8 0 1.8-.1 2.6l-1.9 11.1c-.3 1.6-.4 3-.4 4.3 0 1.3.3 2.4.7 3.5.4.9 1.1 1.8 1.9 2.4.8.7 1.9 1.1 3.2 1.2l7.7 1.2.8-4.3c-.3-.4-.7-.9-.8-1.5-.3-.5-.4-1.1-.5-1.6-.1-.5-.1-1.2-.1-1.9s.1-1.3.3-2.2l1.9-10.9c.3-1.2.3-2.4.1-3.6s-.4-2.4-.9-3.5-1.2-2.2-2-3.1c-.8-.9-1.9-1.8-3.2-2.3 1.5-.1 2.7-.5 3.8-1.1 1.1-.5 2-1.2 2.8-2 .8-.8 1.5-1.9 2-3s.9-2.4 1.1-3.8l1.2-7.3c.4-2.4.4-4.7.1-6.7-.4-2-1.1-3.9-2.2-5.7-1.1-1.6-2.6-3.1-4.3-4.2s-3.9-1.9-6.3-2.4l-22.6-4.3M158.2 267l-11.7 66.8 12.7 2 11.7-66.4-12.7-2.4M179.4 271.1l-11.7 66.1 32 5.1 2.2-12.3-19.6-3.2 2.9-16.4 13.5 2.4 1.8-10.7-13.4-2.4 2.5-14.4 19.4 3.6 2.2-11.7-31.8-6.1M217.5 278.4l-11.4 64.8 11 1.8 6.3-36.4 3 11.5 7.6 27.6 8.9 1.5 11.3-63.6-10.5-2.1-6.5 36.7-2.6-11.2-7.1-28.6-10-2M270.9 342c-.4 0-.9 0-1.3-.1l-5.4-.9 7.1-40.4 5.4 1.1c1.1.3 2 .5 2.7 1.1.7.5 1.3 1.1 1.6 1.9.4.8.7 1.6.7 2.7.1 1.1 0 2.2-.3 3.4l-4.3 24.4c-.3 1.2-.5 2.3-.9 3.2-.4.9-.9 1.8-1.6 2.3-.7.5-1.3.9-2.3 1.2-.3 0-.9.1-1.4.1m-9-54.9l-11.2 63.3 17.7 2.8c1.2.1 2.3.3 3.4.3 1.5 0 2.8-.1 4-.5 2.2-.5 4.2-1.5 5.8-2.8 1.8-1.3 3.1-3.1 4.2-5.1 1.1-2 1.9-4.4 2.3-7l4.6-25.6c.4-2.6.5-5.1.3-7.5s-.9-4.6-2.2-6.6c-1.1-2-2.6-3.6-4.4-5-1.9-1.3-4.2-2.3-6.9-2.8l-17.6-3.5M314.7 296.1c-1.3 0-2.6.1-3.8.5-2.2.5-4 1.6-5.7 3-1.6 1.3-3 3.2-4 5.1-1.1 2-1.9 4.3-2.3 6.6-.4 2.4-.4 4.6 0 6.5.4 2 1.1 3.8 2 5.5.9 1.6 2.2 3.2 3.4 4.6 1.2 1.5 2.7 2.7 3.9 4 1.3 1.2 2.4 2.3 3.4 3.2.9 1.1 1.8 2 2.3 3s.9 1.9 1.2 3c.1.9.1 2 0 3.1s-.4 2-.8 2.8c-.4.8-.9 1.5-1.5 2-.5.5-1.2.9-2 1.1-.4.1-.9.1-1.3.1s-.8 0-1.2-.1c-.9-.1-1.9-.5-2.6-.9-.7-.4-1.2-1.1-1.6-1.9-.4-.8-.7-1.6-.7-2.7-.1-1.1 0-2.2.3-3.5l.4-2-10.2-1.5-.5 3.2c-.4 2.7-.5 5.1-.1 7.4.4 2.3 1.2 4.3 2.3 6.1 1.2 1.8 2.7 3.2 4.6 4.3 1.9 1.1 4 1.9 6.6 2.3.9.1 1.8.3 2.7.3 1.5 0 3-.3 4.4-.7 1.3-.4 2.6-.9 3.8-1.8.4-1.2.7-2.2.9-3 .9-4 1.5-12.8 1.9-17.9l.1-3.1c.1-1.6.3-3.8.5-6.5-1.1-1.2-2.3-2.4-3.6-3.8-1.5-1.3-2.7-2.4-3.6-3.5-1.1-1.1-1.9-2-2.4-3.1-.7-.9-1.1-1.9-1.2-2.8-.3-.9-.3-2 0-3.1.1-.9.4-1.8.8-2.4.4-.7.8-1.3 1.3-1.8.5-.4 1.2-.8 1.9-.9.4-.1.7-.1 1.1-.1.4 0 .7 0 1.1.1.9.1 1.8.5 2.4 1.1.7.5 1.1 1.1 1.5 1.9.4.8.5 1.6.7 2.6.1.9 0 1.9-.1 3l-.4 1.9 2.3.4c.9-5.1 2.4-10.8 4.3-16.3-.8-.9-1.6-1.8-2.7-2.4-1.8-1.2-3.8-2.2-6.1-2.6-1.6-.2-2.6-.3-3.7-.3M57.4 388v69.8l13.6-.3v-69.2l-13.6-.3M80.3 388.4v69l12.3-.3v-38.6l5.4 11.1 13.6 27.3 10-.2v-67.6l-11.8-.2v39l-4.9-11.2-13.4-28.2-11.2-.1M141.5 389.3l15.2 39.3v27.6l12.4-.3v-27.3l15.1-38.5-12.2-.2-8.4 26-8.7-26.3-13.4-.3M204 445.3c-.9 0-1.8-.1-2.4-.5-.8-.3-1.5-.8-1.9-1.5-.5-.7-.9-1.3-1.2-2.3-.3-.9-.4-1.9-.4-3v-30.2c0-1.1.1-2.2.4-3 .3-.9.7-1.6 1.2-2.3.5-.7 1.2-1.1 1.9-1.5.7-.3 1.6-.5 2.6-.5h.1c1.1 0 1.9.1 2.7.5.8.4 1.5.8 2 1.5s.9 1.5 1.2 2.3c.3.9.4 1.9.4 3v29.9c0 1.1-.1 2-.4 3s-.7 1.6-1.2 2.3c-.5.7-1.2 1.2-2 1.5-.9.5-1.7.6-3 .8.2 0 0 0 0 0m-.2-56.4c-2.7 0-5.3.4-7.4 1.3-2.3.9-4.2 2.3-5.8 4-1.6 1.8-2.8 3.9-3.6 6.2-.8 2.4-1.3 5.1-1.3 8v28.7c0 3 .4 5.7 1.3 8.1.8 2.4 2 4.6 3.6 6.3 1.6 1.8 3.5 3.1 5.8 4 2.2.9 4.6 1.3 7.3 1.3h.4c2.8 0 5.5-.7 7.7-1.6 2.3-.9 4.2-2.4 5.7-4.2 1.5-1.8 2.7-3.9 3.5-6.3.8-2.4 1.2-5.1 1.2-8v-28.2c0-2.8-.4-5.5-1.2-7.8-.8-2.4-2-4.4-3.5-6.2-1.6-1.8-3.5-3.2-5.7-4.2-2.3-.9-4.9-1.6-7.7-1.6-.1.2-.2.2-.3.2M229.6 390.8v47.8c0 2.7.4 5.1 1.3 7.3.8 2.2 2.2 4 3.6 5.7 1.6 1.6 3.5 2.8 5.7 3.6 2 .8 4.3 1.2 6.7 1.2h.3c2.6 0 4.9-.5 7-1.5 2-.9 3.9-2.2 5.4-3.8 1.5-1.6 2.7-3.5 3.5-5.7.8-2.2 1.2-4.6 1.2-7.3v-46.9l-11.1-.1v47c0 1.1-.1 2-.4 2.8-.3.8-.7 1.5-1.1 2.2-.5.5-1.1 1.1-1.9 1.3-.7.3-1.6.4-2.6.4h-.1c-.9 0-1.8-.1-2.4-.4-.8-.3-1.3-.7-1.9-1.2-.5-.5-.9-1.2-1.2-2.2-.3-.8-.4-1.8-.4-2.8v-47.3l-11.6-.1M288.8 419.4H283v-17.1h6.2c.7 0 1.3.1 1.8.4.5.3.9.5 1.2 1.1.3.4.5.9.7 1.6.1.7.3 1.3.3 2.2v6.5c0 .9-.1 1.8-.3 2.4-.1.7-.4 1.2-.8 1.8-.4.4-.8.8-1.3 1.1-.6-.1-1.3 0-2 0m-17-27.9v62.8l11.2-.1v-25.5h6c.8 0 1.3.1 1.9.5.5.3 1.1.8 1.3 1.3.4.5.7 1.2.8 1.9.1.7.3 1.5.3 2.3v10.1c0 1.5.1 2.8.4 3.9.3 1.2.5 2.2 1.1 3 .5.8 1.1 1.5 1.9 1.9.8.4 1.6.7 2.7.7h.1l4.7-.1v-6.9c-.1-.4-.3-.8-.3-1.3-.1-.7-.1-1.2-.1-2v-10.1c0-1.1-.1-2.2-.4-3.2-.3-1.1-.7-2-1.2-3-.5-.9-1.2-1.8-2.2-2.4-.8-.7-1.9-1.2-3-1.5 1.2-.4 2.2-.9 3-1.5.8-.7 1.5-1.3 2-2.3s.9-1.9 1.2-3c.3-1.1.4-2.3.4-3.5v-6.7c0-2.2-.3-4.3-.9-6.1-.5-1.8-1.5-3.4-2.6-4.7-1.1-1.3-2.6-2.3-4.2-3-1.6-.7-3.5-1.1-5.5-1.1l-18.6-.4M116.2 521.6l-34.3 5.5 6.1 68.6 13.3-2.6-2.2-28.2 14.9-2.6-1.1-11.8-14.9 2.7-1.4-16.3 20.7-3.5-1.1-11.8M137.3 548.4l-1.5-18.5 7.3-1.2c.4 0 .8-.1 1.1-.1.4 0 .8 0 1.1.1.5.1 1.1.4 1.5.8.4.4.7.9.9 1.6.3.7.4 1.3.4 2.2l.5 7c.1 1.1 0 1.9-.1 2.7-.1.8-.4 1.5-.8 2s-.9 1.1-1.5 1.3c-.7.4-1.3.5-2.2.7l-6.7 1.4M147 517c-1.1 0-2.2.1-3.2.3l-21.8 3.5 5.4 67.4 12.9-2.4-2.2-27.2 6.9-1.2c.4 0 .7-.1 1.1-.1.5 0 .9.1 1.3.1.7.3 1.3.5 1.8 1.1.4.5.8 1.2 1.1 1.9.3.7.4 1.5.5 2.4l.8 10.9c.1 1.5.4 3 .7 4 .4 1.2.8 2.2 1.5 3 .7.8 1.3 1.3 2.3 1.6.5.1 1.1.3 1.8.3.5 0 1.1 0 1.6-.1l7.4-1.5-.3-4.2c-.4-.3-.8-.7-1.1-1.1-.4-.4-.7-.8-.9-1.3-.3-.5-.4-1.1-.7-1.8-.1-.7-.3-1.3-.3-2l-.8-10.8c-.1-1.1-.3-2.3-.7-3.4-.4-1.1-.9-2-1.8-3-.7-.9-1.6-1.6-2.7-2.2-1.1-.5-2.3-.9-3.6-1.1 1.3-.7 2.4-1.3 3.4-2.3.9-.8 1.6-1.9 2.2-2.8.5-1.1.9-2.2 1.1-3.4.3-1.2.3-2.6.1-3.8l-.5-7.1c-.1-2.4-.7-4.6-1.5-6.3-.8-1.9-2-3.4-3.4-4.4-1.5-1.2-3.1-2-5.1-2.4-1-.6-2.1-.6-3.3-.6M180.1 511.4l-12.6 1.9 4.9 66.1 12.4-2.5-4.7-65.5M204.3 561.6l-2.8-41.8 5.8-.9c.5-.1 1.1-.1 1.5-.1.5 0 1.1 0 1.6.1.8.3 1.6.7 2.2 1.2.5.7 1.1 1.3 1.3 2.3.3.9.5 2.2.7 3.4l1.6 25.2c.1 1.2 0 2.4-.1 3.5-.3 1.1-.5 2-1.1 2.8-.5.8-1.2 1.5-2 2s-1.8.9-3 1.1l-5.7 1.2m6.5-54.9c-1.1 0-2.2.1-3.4.3l-19 3 4.6 65.4 18.7-3.6c2.8-.5 5.4-1.5 7.5-2.8 2.2-1.3 3.9-3 5.3-4.9s2.4-4 3-6.5c.5-2.4.8-5 .7-7.7l-1.8-26.3c-.1-2.7-.7-5.3-1.6-7.4s-2.2-4.2-3.8-5.7c-1.6-1.5-3.5-2.7-5.8-3.2-1.3-.4-2.8-.6-4.4-.6M253.2 498.4c-1.1 0-2.2.1-3.2.3-2.8.4-5.4 1.5-7.5 2.8-2.2 1.3-4 3.1-5.4 5.1-1.5 2-2.4 4.2-3.1 6.6-.7 2.3-.9 4.7-.8 7.1l1.9 30.1c.1 2.4.7 4.7 1.5 6.9.8 2 2 3.9 3.4 5.3 1.5 1.5 3.2 2.6 5.3 3.1 1.1.3 2.4.5 3.6.5 1.1 0 2.2-.1 3.4-.3 1.2-.3 2.4-.7 3.6-1.2 1.1-.5 2.2-1.2 3.1-2 .9-.8 1.8-1.8 2.4-2.8.7-1.1 1.3-2.3 1.8-3.5l1.8 5.5 6.2-1.2-1.9-32.2-17.1 3 .5 9.3 6.2-1.1.4 6.5c0 .8 0 1.8-.3 2.6s-.5 1.6-1.1 2.4c-.5.7-1.1 1.3-1.9 1.9-.8.5-1.8.9-2.7 1.1-.4.1-.9.1-1.3.1-.5 0-.9 0-1.5-.1-.8-.3-1.5-.7-2-1.1-.5-.5-1.1-1.2-1.3-1.9-.3-.7-.5-1.6-.5-2.4l-1.9-30.2c0-.9 0-1.8.3-2.6s.5-1.6 1.1-2.4c.5-.7 1.1-1.3 1.9-1.9.8-.5 1.6-.8 2.7-1.1.4-.1.8-.1 1.2-.1.5 0 1.1 0 1.5.1.8.3 1.5.5 2 1.1.5.5.9 1.2 1.2 1.9.3.8.4 1.6.5 2.4l.3 5.1 10.9-1.9-.3-4.7c-.1-2.4-.7-4.9-1.5-6.9s-2-3.9-3.5-5.4-3.4-2.6-5.7-3.1c-1.1-.5-2.5-.7-4.2-.7M303.2 491.6l-28.8 4.7 3.5 62.7 25.7-5v-11.6l-15.2 2.9-.9-15.5 12.1-2.3-.5-10-12.2 2-.6-13.6 17.5-2.9-.6-11.4"/><path fill="#BCBEC0" d="M422 412.8c.1 3.8.3 7.3.3 10V429.1c-.2 0 .1-7.1-.3-16.3M360.2 191c-5 0-8.8.7-10 1.8-2.2 2-2.7 3.4-2.7 6.6 0 5 2.2 6.3 2.2 10.4 0 2.8-1.6 9.3-2.2 12.8-1.1 6.7-.8 10.6.7 12.3 1.5 1.6 1.5 2.6 1.5 6.2s-.1 16.6-1.2 23.2c-1.1 6.6-3.2 16.8-10.2 30.9-7 14.3-8.8 33.4-9 38.9-.4 5.7-.8 17.1-2.3 22.8-1.3 5.7-7.1 18.5-10.6 36.9-3.5 18.6-2.8 41.8-2.8 41.8l-1.1 153.1s-.4 17.3 2 28.6 8.4 16.3 22.2 16.3c7.5 0 17.5-1.5 30.5-4.3 28.4-6.1 36.8-11.1 42-13.9 5.4-2.7 8.2-8 10.8-19.3 2.2-9.7 2.2-22.6 2.2-26 0 5.1-.3 15.6-1.9 23.7-2.2 11.3-4.2 14.7-8.8 17.4-4.6 2.7-18.1 6.9-38.3 11.3-12.7 2.8-21.7 3.8-27.9 3.8-3.6 0-6.3-.4-8.1-.9-3.1-.9-6.3-5.3-7.3-10.6-2-11.3-1.6-28.6-1.6-28.6l.9-153.1s-.5-23.2 2.4-41.9c3-18.5 9.3-31.3 10.4-36.9 1.2-5.7 1.6-17.1 1.9-22.8.3-5.5 1.2-24.8 7.1-38.9 5.9-14 4-24.3 4.9-30.9.9-6.6.7-19.5.7-23.2 0-3.6 0-4.6-1.3-6.2-1.2-1.6-1.5-5.5-.5-12.3.5-3.4 1.9-9.8 1.9-12.8 0-4-1.8-5.4-1.9-10.4 0-1.1.5-4.4 1.3-5.1.8-.7 2.6-.9 4.9-.9l-.8.2"/><path fill="#FFF" d="M342.3 501.6c0 1.1 1.1 1.9 2.2 1.9-1.1 0-2.2-.8-2.2-1.9m2.2 5.4c-3.1 0-5.7-2.4-5.7-5.3 0-3.5 2.7-4.7 3.8-5.1.3-.1.7-.3.9-.5v-69c0-4.7-.8-6.3-3.4-8.9-1.3-1.1-1.9-2.8-1.3-5.3.5-2.7 2.8-4.7 5.7-4.7h.7l5.9.7c.3 0 .7.1.8.1l.9.3 1.1.3c4.9 1.3 8.5 7 8.5 13.3V492c0 6.3-3.5 12-8.5 13.3l-.9.3-1.1.3c-.3 0-.4.1-.7.1l-6.1.7c-.1.3-.4.3-.6.3m16.7-316c-2.3 0-4 .3-4.9.9-.8.7-1.3 4-1.3 5.1.1 5 1.9 6.3 1.9 10.4 0 2.8-1.3 9.4-1.9 12.8-.9 6.7-.7 10.6.5 12.3 1.2 1.6 1.3 2.6 1.3 6.2s.1 16.6-.7 23.2c-.9 6.6 1.1 16.8-4.9 30.9-6.1 14.3-6.9 33.4-7.1 38.9-.3 5.7-.7 17.1-1.9 22.8-1.2 5.7-7.4 18.5-10.4 36.9-3 18.6-2.4 41.9-2.4 41.9l-.9 153.1s-.4 17.3 1.6 28.6c.9 5.3 4.2 9.6 7.3 10.6 1.8.5 4.4.9 8.1.9 6.1 0 15.1-1.1 27.9-3.8 20.4-4.4 33.7-8.6 38.3-11.3 4.6-2.7 6.6-6.1 8.8-17.4 1.5-8.2 1.8-18.6 1.9-23.7V429.5v-2.3-4c0-2.7-.1-6.2-.3-10-.3-6.7-.9-14.7-2.4-21.8-3.4-17-9-28.8-10.4-34-1.3-5.3-1.8-16-2.2-21.3-.4-5.3-1.9-23.5-8.8-37.5-6.9-14.3-9-24.4-10-31-.9-6.6-1.1-19.1-1.1-22.6s.1-4.4 1.6-5.7c1.5-1.2 1.9-5 .8-11.7-.5-3.4-2-10.1-2-12.8 0-3.2 1.5-4.3 2-7 .1-.5.1-1.2.3-1.9v-.6c0-3.1-.7-4.4-2.6-6.9-.3-.3-.5-.7-.8-.9-1.9-1.8-5.3-3.2-11.1-4.3-5.3-1.6-10.6-2.2-14.2-2.2"/><path fill="#FFF" d="M344.6 411.6c-1.1 0-2 .8-2.3 1.9.1-.3.1-.5.4-.8h.1c.9 0 2.4.5 4.3 1.3 2.6 1.1 4.3 4.2 4.3 8v70.8c0 1.8 0 2.8-.7 4.2-.5 1.2-.1 2.2.9 2.2h.5c1.2-.3 2.4-.5 3.9-.8 1.3-.3 2.2-.9 2.7-3.4 0 0 .3-1.6.3-2.7V423c0-4.7-2.6-9-5.9-10l-1.1-.3-.9-.3h-.3l-6.1-.7-.1-.1"/><path fill="#BCBEC0" d="M342.7 412.7c-.3.3-.4.5-.5.8-.1.4-.1.8-.1 1.1 0 1.8 1.5.9 3.8 2.2 1.3.7 2.6 2.7 2.6 5.7v70.4c0 3.1-1.1 4.9-3 6.1-1.8 1.2-3.4 1.1-3.4 2.8 0 1.1 1.1 1.9 2.2 1.9h.3l6.1-.7h.4l.9-.3 1.1-.3c2.7-.8 4.9-3.6 5.7-7.3-.5 2.3-1.3 3-2.7 3.4-1.5.4-2.7.5-3.9.8h-.5c-1.1 0-1.6-.9-.9-2.2.7-1.3.7-2.6.7-4.2v-70.8c0-3.8-1.8-6.7-4.3-8-1.9-.9-3.5-1.4-4.5-1.4"/></svg>