<svg xmlns="http://www.w3.org/2000/svg" viewBox="0 0 126 117" enable-background="new 0 0 126 117"><path fill="#EC2024" d="M73.925 28.835c12.284-7.902 9.31-14.118 18.04-23.926-1.66 4.734 4.536 17.65-4.755 36.76 10.936-2.24 19.19-13.707 29.155-13.576-9.988 8.318-7.858 24-22.348 29.786 9.48 6.964 22.065 2.525 29.556 9.28-13.76 1.97-19.84 11.2-35.746 10.422 3.23 10.798 16.61 12.424 20.002 22.505-9.39-5.75-25.005.435-36.153-12.424-3.75 10.915 4.194 20.584 3.784 29.33C69.306 109.537 55.2 104.546 52.1 88c-9.682 6.708-8.52 18.95-21.43 24.58 6.047-11.42 1.835-24.24 8.13-37.41-9.474-.913-22.306 9.28-31.07 10.442 8.173-5.883 11.308-19.895 24.257-26.65-9.823-7.89-19.703-6.192-29.56-9.286 12.898-3.458 19.517-10.94 35.755-10.42-3.252-11.9-16.196-14.166-18.142-22.784 12.082 6.566 24.89 3.13 34.29 12.704 4.978-6.874-3.158-20.54.04-29.164 2.304 9.334 17.424 16.046 19.555 28.825"/></svg>