<svg id="Layer_1" xmlns="http://www.w3.org/2000/svg" viewBox="0 0 741 332"><style>.st0{fill-rule:evenodd;clip-rule:evenodd;} .st1{fill:#EE3124;} .st2{fill:#FFFFFF;} .st3{fill:#BCBDC0;} .st4{fill:#131718;}</style><path d="M265.9 2.7h45.2c47.9 0 66.1 38.1 66.1 75.3 0 35.2-17 77.8-64.3 77.8h-47V2.7zm43 127.3c25.1 0 32.9-19.5 32.9-50.2 0-28.9-7.2-51.3-31.1-51.3h-10.1V130h8.3zM402.3 2.7h89.1v26.4H437v35.7h50.6v26.4H437v38.1h56.4v26.5h-91.1zM548 29.1h-34.9V2.7h104.6v26.4h-35v126.7H548zM667.8 29.1h-34.9V2.7h104.5v26.4h-34.9v126.7h-34.7z"/><path class="st0" d="M61.3 81h.5L83.9 2.3h35.2L70.1 157H54L2.7 2.3h35.2zM143 2.3V155h91.1v-26.4h-56.4v-38h50.5V64.2h-50.5V28.7H232V2.3zM267.2 2.3V155h47c47.2 0 64.2-42.5 64.2-77.6 0-37.1-18.1-75.2-66-75.2h-45.2zM301.8 28v101.3h8.3c25.1 0 32.9-19.5 32.9-50.1 0-28.9-7.2-51.2-31.1-51.2h-10.1zM403.4 2.3V155h91v-26.4h-56.3v-38h50.5V64.2h-50.5V28.7h54.3V2.3zM514.1 2.3v26.4H549V155h34.7V28.7h34.9V2.3zM633.8 2.3v26.4h34.9V155h34.7V28.7h34.9V2.3z"/><path class="st1" d="M384.6 220.3c15.3-9.8 11.6-17.5 22.4-29.7-2.1 5.9 5.6 21.9-5.9 45.6 13.6-2.8 23.8-17 36.2-16.8-12.4 10.3-9.7 29.8-27.7 37 11.8 8.6 27.4 3.1 36.7 11.5-17.1 2.4-24.6 13.9-44.4 12.9 4 13.4 20.6 15.4 24.8 27.9-11.7-7.1-31 .5-44.9-15.4-4.7 13.5 5.2 25.5 4.7 36.4-7.6-9.3-25.1-15.4-29-36-12 8.3-10.6 23.5-26.6 30.5 7.5-14.2 2.3-30.1 10.1-46.4-11.8-1.1-27.7 11.5-38.6 13 10.1-7.3 14-24.7 30.1-33.1-12.2-9.8-24.5-7.7-36.7-11.5 16-4.3 24.2-13.6 44.4-12.9-4-14.8-20.1-17.6-22.5-28.3 15 8.1 30.9 3.9 42.6 15.8 6.2-8.5-3.9-25.5.1-36.2 2.8 11.5 21.6 19.9 24.2 35.7"/><path class="st2" d="M361.8 234.5s-8.3-.9-12.1 1.9c0 0-5.1.1-7.1 3.8 0 0-5.9 4.7-5.9 11.1 0 0-5.8 6.6-5.6 9.1 0 0 2.2 8.9 20.3 9.1 18.1.3 27.4-5.3 30.1-8.2 2.8-2.9 5.8-8.1 9.4-7.7 0 0 1.5-.1.6-.9s-6.1-2.5-6.6-4c-.4-1.5-4.9-11.2-12.1-12.5.1 0-7.4-2.9-11-1.7"/><path class="st2" d="M331.5 261.8s-3.2 2.4-6 4 4.5 7.7 6.7 7.7c0 0 1.3-2.4 1.5-3 .2-.6 4.5-3.4 4.5-3.4s17.6 10 42.1 4.9c0 0 1.2 7.1-1.7 10.7-2.9 3.5 2.6 6.8 5.8 5.7 3.2-1.1 10.3-10.8 6.4-18.8h2.9s3.7 3.4 4.2 3.9 6.3.6 7.6-.2c1.3-.8-2.7-6.7-2.7-6.7s2.2-1.4 3-1.6c.8-.2 3-2.1 3.6-3.5l1.8-.4.6-5.2s-3.7-2.7-8.5-3.6c-4.8-.9-9.1 3-10.3 3.7-1.1.7-3.9-1.4-3.9-1.4"/><path class="st3" d="M395.7 254s.3 2.3 2.4 2c2.1-.4 3.3-2.2 5.9-1 2.6 1.2 6.1.7 6.4 0 .4-.7-10.6-5.9-14.7-1M340.1 268s21.9 4.4 38.4-4.1c0 0 2.4 5.5 1.8 8.2 0 0-18.3 2-22.3 1-3.9-1-17.9-5.1-17.9-5.1M391.7 255.9s-3.9 2.4-3.7 4.8c.2 2.4 2.5 7.5 8.8 7.7l-5.2 1.1s-7.9-6.8-11.3-6.9l3.8-4.2 1.6-3.2 2.8-1.1 3.2 1.8zM394.8 269.5l5-2.5 3-1.4.6 2 1.5 2.7.8 1.8-.2 1.2-4.4.7h-2.9l-2.5-2.6z"/><path class="st4" d="M383 289.3c-2 0-4.2-1-5.3-2.5-1-1.5-.9-3.1.3-4.6 2.1-2.6 1.8-7.4 1.6-9.2-5.4 1.1-10.9 1.5-16.3 1.3-4.6-.2-9.1-.8-13.5-1.9-6.3-1.6-10.4-3.5-11.6-4.2-1.7 1.1-3.5 2.4-3.9 2.8-.3.7-1.4 2.8-1.5 3.1-.1.3-.4.4-.7.4-1.5 0-3.9-1.8-4.6-2.4-.9-.7-3-2.6-3.5-4.4-.3-1 .1-1.9.9-2.4 2.7-1.6 5.9-3.9 6-4 .3-.2.8-.2 1.1.2.3.3.2.8-.2 1.1-.1.1-3.3 2.4-6.1 4.1-.2.1-.3.2-.2.7.2.9 1.4 2.3 3 3.6 1.3 1 2.5 1.7 3.2 1.9.5-.9 1.1-2.1 1.2-2.5.1-.3.4-.8 2.6-2.3 1.1-.8 2.2-1.4 2.2-1.5.2-.2.6-.2.8 0 0 0 4.4 2.5 11.7 4.3 4.3 1.1 8.7 1.7 13.1 1.9 5.6.2 11.2-.2 16.7-1.4.2 0 .4 0 .6.1.2.1.3.3.3.5.1.3 1.2 7.5-1.8 11.3-.8.9-.8 1.9-.2 2.8 1 1.5 3.5 2.3 5.1 1.7 1.4-.5 4.1-3.3 5.8-7.3 1.1-2.7 2-6.6.2-10.5-.1-.2-.1-.5 0-.7.1-.2.4-.4.7-.4h2.9c.2 0 .4.1.5.2 0 0 3.4 3.2 4.1 3.9.3.1 1.6.3 3.3.2 1.7 0 2.9-.2 3.3-.4 0-.2-.1-1-1.3-3.1-.8-1.4-1.6-2.6-1.6-2.6-.1-.2-.2-.4-.1-.6 0-.2.2-.4.3-.5.4-.2 2.4-1.5 3.2-1.7.5-.1 2.6-1.8 3-3 .1-.2.3-.4.5-.5l1.2-.3.5-4.2c-1-.7-4.1-2.5-7.8-3.2-3.8-.7-7.5 2-9.1 3.1-.3.2-.5.3-.6.5-.7.5-1.8.3-3.2-.4-.9-.5-1.6-1-1.6-1.1-.3-.3-.4-.7-.1-1.1.3-.3.7-.4 1.1-.1 0 0 .7.5 1.4.9 1 .6 1.5.5 1.6.5.1-.1.3-.2.6-.4 1.7-1.3 5.7-4.2 10.2-3.4 4.9.9 8.6 3.6 8.8 3.7.2.2.3.4.3.7l-.6 5.2c0 .3-.3.6-.6.7l-1.4.3c-.5.9-1.3 1.7-1.7 2.1-.3.3-1.5 1.3-2.2 1.5-.3.1-1.2.6-2.1 1.1.3.5.8 1.2 1.2 2 1.5 2.7 1.5 3.8 1.4 4.3-.1.5-.4.7-.6.9-.9.6-3.2.7-4.5.7-.9 0-1.7 0-2.4-.1-1.1-.1-1.4-.3-1.7-.5-.4-.4-3.2-3-4-3.7h-.9c.6 1.5.8 3.2.7 4.9-.1 1.8-.5 3.8-1.3 5.7-1.6 3.8-4.5 7.4-6.7 8.2-.6-.1-1.1 0-1.7 0"/><path class="st4" d="M393.4 270.3s5.4-.9 7.1-3.7c0 0-3.3 2-9.7 2.2"/><path class="st4" d="M382.1 263.1c-.3-.2 7.4 2.1 9.6 5.7l-1.5 1.1c-.1 0-.8-2.9-8.1-6.8M380.2 268.4s.9 3.1 1 4.4l-1.7-1.3s.8-1.9.7-3.1M400.3 263.1s3.9-.8 4.8-2.2l5.3-.4-.5 1.7-4.5-.4c-.1-.1-2.2 1.6-5.1 1.3M403.6 258.5c0 .6-.5 1-1 1-.6 0-1-.5-1-1 0-.6.5-1 1-1s1 .5 1 1M359.5 269.3c-1.5-2.4-.7-12-.7-12.4l.6.1c0 .1-.7 9.8.6 12l-.5.3z"/><path class="st3" d="M346.8 269.2s2.1-11 3.8-11.2c0 0-3.7-.7-3.4-2 .3-1.3.8-7.4 6.3-16.5l3.9-1.9 1.9-1.4 1.4-1.5s-8.3-.1-10.7 1.1c-2.4 1.2-5.6 2-5.8 2.7-.2.7-1.6 1.6-4.4 5.8-2.8 4.2-3.2 6.9-3.2 6.9s-6 7.6-5.6 9c.5 1.6 7.4 9.6 15.8 9"/><path class="st4" d="M335.4 265.1l-.5-.3 6.1-10.4.5.3zM346.9 268.5l-.6-.1c.1-1.7.8-4.1 2-6.9.9-2.1 1.7-3.8 1.8-3.8l.5.3c0 .1-3.4 6.5-3.7 10.5"/><path class="st3" d="M384.3 247s-3.4 3.5-9.2 2.8c0 0-1.3 3.7-5.3 4.9-3.9 1.2.1.6.1.6l-4 .6s5.6 9.4 5.6 10.6c0 1.2-.3.3-.3.3s6.8-4.8 6.4-7.2c0 0 4.1-2.5 3.5-7.3 0 0 3.1.9 5.8-1.9l-1.5-1.1-1.1-2.3z"/><path class="st4" d="M385.8 255.4c-1.6-.2-3.1-1.3-4.7-3.2-1.1-1.4-1.8-2.7-1.8-2.7l.5-.3s2.7 5.1 6.1 5.6l-.1.6zM381 262.1c-.2 0-.8 0-5-4-2.1-1.9-4-3.9-4.1-3.9l.4-.4c4.8 4.7 8.2 7.6 8.7 7.7v.6zM371.5 266.9h-.6c0-.7-.4-2.4-2.7-6.3-1.4-2.3-2.8-4.4-2.8-4.4l.5-.3c.2.3 5.7 8.2 5.6 11M337.5 251.4l-.2-.5 3.1-1.2 4.3-9-1-.9.3-.5 1.5 1.2-4.6 9.7z"/><path class="st4" d="M345.4 256.4c-.6 0-1.4-.1-2.3-.4-1.6-.6-2.6-1.5-3.1-2.6-.4-1.1-.3-2.3.3-3.6l.5.2c-.6 1.2-.6 2.2-.3 3.1.4 1 1.3 1.7 2.7 2.3 2 .7 3.1.3 3.5.1-.1-2.6 1.1-5.6 1.1-5.7l4.9-10.4-2.6-1.1-5.1 2.6-.3-.5 5.4-2.7 3.4 1.5-5.2 11c-.1.2-1.2 3.2-1.1 5.6v.2l-.1.1c.2-.1-.4.3-1.7.3"/><path class="st4" d="M353.4 258.5h-1.1c-2.6-.2-4.2-.8-5-1.7-.4-.5-.4-1-.4-1.1l.6.1s-.1 1.7 4.9 2.1c4.6.4 7.7-1.8 8.3-2.3-.8-4.1-.3-8.2.4-11 .6-2.5 1.3-4.4 1.5-5l-3.6-2.8-5.5 2.7-.3-.5 5.9-2.9 4.2 3.3-.1.2s-.9 2.1-1.6 5.1c-.6 2.8-1.2 6.9-.3 10.9v.2l-.1.1s-.9.7-2.4 1.4c-1.2.6-3.1 1.2-5.4 1.2"/><path class="st4" d="M363.1 256.7c-.9 0-1.6-.2-2.3-.8l.4-.4c1.2 1.1 3.1.6 5.6-.1.9-.2 1.9-.5 3-.7 3.8-.8 4.7-5.2 4.8-5.3.1-.2-.2-.9-.8-1.9-.5-.8-1.2-1.6-1.6-1.9-.8-.6-2.5-4.7-2.9-5.7H363v-.6h6.7l.1.2c.8 2 2.2 5.3 2.8 5.7.8.6 2.9 3.4 2.6 4.4 0 .1-.3 1.3-1 2.5-1 1.7-2.5 2.8-4.2 3.2-1.1.2-2 .5-3 .7-1.5.4-2.8.7-3.9.7"/><path class="st4" d="M377 250c-.7 0-1.4 0-2.2-.2l.1-.6c5.1.8 8.1-1.5 8.7-2-.6-3.6-5.6-8.4-6.2-9l-4.4-.9-3.3 2.4-.3-.5 3.5-2.6 4.8 1 .1.1s1.5 1.4 3 3.2c2 2.5 3.2 4.6 3.4 6.3v.1l-.1.1s-.8.8-2.4 1.5c-1.1.6-2.7 1.1-4.7 1.1M350 235.9h.6v2.1h-.6zM359.2 236.7l-.3-.5 3.3-2.6.3.5z"/><path class="st4" d="M331.8 260.3c.1.4.8 2.2 3.2 4.1 1.6 1.2 3.5 2.2 5.9 2.9 2.9.9 6.5 1.4 10.5 1.5h1.2c7.5 0 14.1-1 19.7-3 3.8-1.4 7-3.2 8.7-5 .6-.7 1.3-1.4 1.9-2.3 2.1-2.6 4.5-5.5 7.3-5.7l-1.2-.6c-2.6-1.2-4.4-2.1-4.8-3.3-.2-.7-1.4-3.4-3.4-6.1-1.7-2.3-4.5-5.2-8.1-5.9h-.1c-.1 0-5.1-1.9-8.7-1.9-.7 0-1.4.1-1.9.2h-.3s-1.2-.1-2.9-.1c-2.3 0-6.5.2-8.7 1.9-.1.1-.3.1-.4.2 0 0-1.2 0-2.6.5-1.8.6-3.1 1.6-3.8 2.9-.1.1-.1.2-.2.3 0 0-1.4 1.2-2.9 3-1.3 1.7-2.8 4.4-2.8 7.4 0 .2-.1.4-.2.5 0 0-1.4 1.6-2.8 3.6-2.3 3.1-2.6 4.4-2.6 4.9m20.8 10h-1.3c-4.2-.1-7.9-.6-11-1.6-2.5-.8-4.7-1.9-6.4-3.3-3-2.4-3.6-4.8-3.6-4.9v-.1c-.1-1.2.8-3.2 2.9-6 1.1-1.6 2.3-2.9 2.7-3.4.1-2.7 1.1-5.5 3.1-8.1 1.3-1.7 2.6-2.8 3-3.2 1.9-3.5 6.3-4 7.4-4.1 2.5-1.7 6.5-2.1 9.4-2.1 1.4 0 2.5.1 2.9.1.6-.2 1.4-.3 2.2-.3 3.7 0 8.5 1.7 9.2 2 1.7.3 3.5 1.2 5.1 2.4 1.3 1.1 2.6 2.4 3.8 4 2.1 2.8 3.4 5.7 3.6 6.6 0 0 .1.4 1.3 1 .8.5 1.8.9 2.7 1.3 1.3.6 2 .9 2.4 1.3.6.6.6 1.1.5 1.3-.3.7-1.2.9-1.6.9h-.4c-2.3 0-4.5 2.7-6.5 5.1-.7.8-1.3 1.6-2 2.3-.9.9-3.5 3.3-9.3 5.4-5.6 2.3-12.4 3.4-20.1 3.4"/><path d="M500.1 229.2H493v-.4c0-1.2-.4-2.2-1.1-2.9-.8-.8-1.7-1.1-2.9-1.1s-2.2.3-2.9 1c-.7.7-1.1 1.6-1.1 2.7s.4 2 1.1 2.5c.7.6 2.4 1.2 5.1 1.7 3.9.8 6.5 1.9 7.8 3.3 1.4 1.4 2 3.4 2 6 0 3.3-1.1 6-3.3 7.9-2.2 1.9-5.2 2.9-9.1 2.9-3.5 0-6.3-1-8.4-3.1-2.1-2-3.2-4.9-3.3-8.4h6.9c0 1.6.5 3 1.5 4 .9 1 2.2 1.5 3.7 1.5 1.6 0 2.8-.4 3.7-1.2.9-.8 1.4-1.8 1.4-3.2 0-1.9-2.2-3.4-6.5-4.3-.5-.1-1-.2-1.2-.3-2.9-.6-5.1-1.7-6.4-3.1-1.3-1.4-2-3.3-2-5.8 0-3 1-5.5 3-7.4 2-1.9 4.6-2.8 7.8-2.8 3.7 0 6.5.9 8.5 2.7 1.8 1.9 2.8 4.5 2.8 7.8M506.9 219.6H527v6.1h-13.5v6.4h12.1v6.2h-12.1v7.4h13.8v6.1h-20.4zM556 229.2h-7.1v-.4c0-1.2-.4-2.2-1.1-2.9-.8-.8-1.7-1.1-2.9-1.1s-2.2.3-2.9 1c-.7.7-1.1 1.6-1.1 2.7s.4 2 1.1 2.5c.7.6 2.4 1.2 5.1 1.7 3.9.8 6.5 1.9 7.8 3.3 1.4 1.4 2 3.4 2 6 0 3.3-1.1 6-3.3 7.9-2.2 1.9-5.2 2.9-9.1 2.9-3.5 0-6.3-1-8.4-3.1-2.1-2-3.2-4.9-3.3-8.4h6.9c0 1.6.5 3 1.5 4 .9 1 2.2 1.5 3.7 1.5 1.6 0 2.8-.4 3.7-1.2.9-.8 1.4-1.8 1.4-3.2 0-1.9-2.2-3.4-6.5-4.3-.5-.1-1-.2-1.2-.3-2.9-.6-5.1-1.7-6.4-3.1-1.3-1.4-2-3.3-2-5.8 0-3 1-5.5 3-7.4 2-1.9 4.6-2.8 7.8-2.8 3.7 0 6.5.9 8.5 2.7 1.8 1.9 2.8 4.5 2.8 7.8M583.9 229.2h-7.1v-.4c0-1.2-.4-2.2-1.1-2.9-.8-.8-1.7-1.1-2.9-1.1s-2.2.3-2.9 1c-.7.7-1.1 1.6-1.1 2.7s.4 2 1.1 2.5c.7.6 2.4 1.2 5.1 1.7 3.9.8 6.5 1.9 7.8 3.3 1.4 1.4 2 3.4 2 6 0 3.3-1.1 6-3.3 7.9-2.2 1.9-5.2 2.9-9.1 2.9-3.5 0-6.3-1-8.4-3.1-2.1-2-3.2-4.9-3.3-8.4h6.9c0 1.6.5 3 1.5 4 .9 1 2.2 1.5 3.7 1.5 1.6 0 2.8-.4 3.7-1.2.9-.8 1.4-1.8 1.4-3.2 0-1.9-2.2-3.4-6.5-4.3-.5-.1-1-.2-1.2-.3-2.9-.6-5.1-1.7-6.4-3.1-1.3-1.4-2-3.3-2-5.8 0-3 1-5.5 3-7.4 2-1.9 4.6-2.8 7.8-2.8 3.7 0 6.5.9 8.5 2.7 1.8 1.9 2.8 4.5 2.8 7.8M597.4 225.1h-5.9v-5.5H610v5.5h-5.9v21.1h5.9v5.6h-18.5v-5.6h5.9zM616.8 235.4c0-5.2 1.1-9.2 3.2-12.2s5-4.5 8.7-4.5c3.7 0 6.6 1.5 8.8 4.5 2.1 3 3.2 7.2 3.2 12.5s-1.1 9.5-3.2 12.5-5 4.5-8.8 4.5c-3.7 0-6.7-1.5-8.8-4.6s-3.1-7.3-3.1-12.7m11.9-10.7c-1.6 0-2.8.9-3.7 2.7-.9 1.8-1.3 4.3-1.3 7.6 0 4 .4 7 1.2 8.9.8 1.9 2.1 2.8 3.9 2.8 1.7 0 2.9-.9 3.7-2.6.8-1.7 1.2-4.5 1.2-8.2 0-3.7-.4-6.5-1.2-8.3-.9-2-2.1-2.9-3.8-2.9M646.2 219.6h5.3l9.7 20.2v-20.2h5.8v32.2h-5.3l-9.7-20.1v20.1h-5.8zM541.5 270.9h-5.9v-5.6h18.5v5.6h-5.9v21h5.9v5.6h-18.5v-5.6h5.9zM562.9 265.3h11.2c3.3 0 5.7.8 7.4 2.4 1.6 1.6 2.4 4.1 2.4 7.4 0 2.1-.3 3.9-1 5.3s-1.7 2.6-3.1 3.4c-.8.5-1.7.8-2.7 1-1 .2-2.7.3-5.1.3h-2.3v12.4h-6.8v-32.2zm9.7 6.1h-3v7.6h2.8c1.7 0 2.8-.3 3.5-.9.7-.6 1-1.6 1-2.9 0-1.4-.3-2.4-1-2.9s-1.7-.9-3.3-.9M597.5 265.3h6.4l10.9 32.2h-7l-2.3-7.4h-9.9l-2.2 7.4h-6.8l10.9-32.2zm3.2 8l-3.3 11.4h6.5l-3.2-11.4zM90.7 252.2h-11v-.2c0-6.6 1.8-11.7 5.5-15.5 3.7-3.8 8.7-5.6 15.1-5.6 6.5 0 11.6 1.7 15.3 5 3.8 3.3 5.6 7.8 5.6 13.4 0 4-1 7.5-3 10.5s-5.7 6.3-11.1 9.9c-1.1.8-2.6 1.8-4.6 3-5.4 3.4-8.4 6-9.1 7.8h27.2v10.2h-42c.1-5.4 1.3-10 3.5-13.6 2.2-3.7 6.2-7.4 11.9-11.2.9-.6 2.2-1.4 3.8-2.5 7.5-4.7 11.2-9.3 11.2-13.8 0-2.6-.8-4.7-2.4-6.2-1.6-1.5-3.8-2.3-6.5-2.3-3 0-5.3.9-6.9 2.8-1.6 1.9-2.5 4.6-2.5 8v.3zM133.2 304v-4.4c2.6-.3 4.6-1.1 5.8-2.4 1.3-1.3 1.9-3.1 1.9-5.5v-.9h-6.3v-11.6h11.6v11.2c0 4.1-1.1 7.4-3.4 9.7-2.2 2.4-5.4 3.7-9.6 3.9M163.1 290.6c.4-8.1 2.4-16.2 5.9-24.2 3.5-8 8.5-15.9 15-23.6h-29.4v-10.2H197v9c-6.6 7.3-11.7 15-15.2 23s-5.6 16.7-6.3 26.1h-12.4zM227 258.6c1.9-2.5 2.9-6.1 2.9-10.7s-1-8.2-2.9-10.7c-2-2.5-4.8-3.8-8.5-3.8-2.4 0-4.4.6-6.1 1.7-1.7 1.2-3 2.9-3.9 5.1-.8 2.1-1.2 4.8-1.2 7.8s.4 5.6 1.2 7.7c.8 2.2 2.1 3.9 3.9 5.1 1.7 1.2 3.8 1.7 6.1 1.7 3.6-.1 6.5-1.4 8.5-3.9m-10-17c.4-1.3 1-1.5 1.5-1.5.8 0 1.3.4 1.6 1.4.4 1.2.6 3.3.6 6.4 0 3.1-.2 5.2-.6 6.3-.3 1-.8 1.4-1.6 1.4-.5 0-.8-.2-1.1-.5-.3-.4-.6-1.2-.7-2.3-.2-1.2-.3-2.8-.3-4.9 0-3 .2-5.1.6-6.3M261.5 266c-.9-2.2-2.2-3.9-3.9-5-1.7-1.2-3.8-1.7-6.2-1.7-2.3 0-4.4.6-6.1 1.7-1.7 1.1-3 2.8-3.9 5-.9 2.1-1.3 4.8-1.3 7.8 0 4.5 1 8.1 2.9 10.6 1.9 2.6 4.8 3.9 8.4 3.9 3.6 0 6.4-1.3 8.4-3.9 1.9-2.5 2.9-6.1 2.9-10.6.1-3-.3-5.7-1.2-7.8m-11.5 1.5c.4-1.3 1.1-1.5 1.5-1.5.7 0 1.2.5 1.6 1.5.4 1.2.6 3.3.6 6.3s-.2 5.1-.6 6.2c-.3 1-.8 1.5-1.6 1.5-.4 0-1.1-.1-1.5-1.5-.4-1.2-.6-3.3-.6-6.2 0-3 .2-5.1.6-6.3M254.4 231.9h-8.8l-30.2 58h9.1l29.7-57.6z"/></svg>