<svg xmlns="http://www.w3.org/2000/svg" viewBox="0 0 198.425 49.606" enable-background="new 0 0 198.425 49.606"><path d="M.373 12.07h8.385l5.607 18.8h.107l5.287-18.8h8.385L16.45 49.02h-3.846zm33.487 0h21.257v6.302H42.14v8.492h12.07v6.302H42.14v9.072h13.457v6.3H33.86zm29.642 0H74.29c11.43 0 15.758 9.08 15.758 17.946 0 8.377-4.062 18.523-15.33 18.523H63.502V12.07M73.756 42.4c5.982 0 7.852-4.646 7.852-11.958 0-6.89-1.71-12.23-7.425-12.23H71.78v24.186h1.976zM96.03 12.07h21.256v6.302h-12.98v8.492h12.07v6.302h-12.07v9.072h13.46v6.3H96.03zm34.768 6.302h-8.333v-6.3h24.944v6.3h-8.335V48.54h-8.278zm28.572 0h-8.33v-6.3h24.94v6.3h-8.33V48.54h-8.28zM.373 12.07h8.385l5.607 18.8h.107l5.287-18.8h8.385L16.45 49.02h-3.846zm33.487 0h21.257v6.302H42.14v8.492h12.07v6.302H42.14v9.072h13.457v6.3H33.86zm29.642 0H74.29c11.43 0 15.758 9.08 15.758 17.946 0 8.377-4.062 18.523-15.33 18.523H63.502V12.07M73.756 42.4c5.982 0 7.852-4.646 7.852-11.958 0-6.89-1.71-12.23-7.425-12.23H71.78v24.186h1.976zM96.03 12.07h21.256v6.302h-12.98v8.492h12.07v6.302h-12.07v9.072h13.46v6.3H96.03zm34.768 6.302h-8.333v-6.3h24.944v6.3h-8.335V48.54h-8.278zm28.572 0h-8.33v-6.3h24.94v6.3h-8.33V48.54h-8.28zm31.707-13.737c1.728-1.11 1.31-1.98 2.536-3.36-.234.666.636 2.48-.67 5.163 1.537-.314 2.696-1.924 4.097-1.907-1.403 1.17-1.105 3.373-3.14 4.185 1.33.98 3.1.355 4.15 1.303-1.932.277-2.787 1.573-5.02 1.464.454 1.518 2.334 1.747 2.81 3.162-1.318-.81-3.512.06-5.076-1.745-.528 1.532.588 2.89.53 4.12-.863-1.05-2.846-1.75-3.282-4.073-1.358.94-1.195 2.662-3.007 3.452.848-1.605.256-3.404 1.14-5.255-1.33-.128-3.133 1.303-4.362 1.467 1.148-.826 1.588-2.794 3.407-3.743-1.38-1.11-2.768-.87-4.15-1.305 1.81-.485 2.74-1.536 5.02-1.463-.458-1.67-2.275-1.99-2.548-3.2 1.697.923 3.495.44 4.816 1.784.7-.966-.443-2.883.006-4.096.322 1.31 2.445 2.252 2.743 4.047z" fill="#231F20"/></svg>