<?xml version="1.0" encoding="utf-8"?>
<!-- Generator: Adobe Illustrator 21.1.0, SVG Export Plug-In . SVG Version: 6.00 Build 0)  -->
<svg version="1.1" id="Layer_2" xmlns="http://www.w3.org/2000/svg" xmlns:xlink="http://www.w3.org/1999/xlink" x="0px" y="0px"
	 viewBox="0 0 800 230" style="enable-background:new 0 0 800 230;" xml:space="preserve">
<style type="text/css">
	.st0{fill:#FFFFFF;}
	.st1{fill:none;}
	.st2{fill:#E20613;}
	.st3{fill:#C6C6C5;}
	.st4{clip-path:url(#SVGID_2_);fill:#1D1D1B;}
	.st5{clip-path:url(#SVGID_2_);fill:#C6C6C5;}
	.st6{fill:#1D1D1B;}
	.st7{clip-path:url(#SVGID_4_);fill:#1D1D1B;}
	.st8{clip-path:url(#SVGID_4_);fill:#C6C6C5;}
	.st9{clip-path:url(#SVGID_6_);fill:#1D1D1B;}
	.st10{clip-path:url(#SVGID_8_);fill:#1D1D1B;}
</style>
<g>
	<polygon class="st0" points="538.1,80 518.3,20 531.9,20 541,50.5 541.2,50.5 549.8,20 563.4,20 544.4,80 	"/>
	<polygon class="st0" points="570.5,79.2 570.5,20 605,20 605,30.3 583.9,30.3 583.9,44.1 603.5,44.1 603.5,54.3 583.9,54.3 
		583.9,69 605.8,69 605.8,79.2 	"/>
	<path class="st0" d="M628.1,69.2h3.2c4.4,0,7.6-1.5,9.7-4.6c2.1-3.1,3.1-8,3.1-14.7c0-13.2-4-19.9-12-19.9h-3.9V69.2z M614.7,79.2
		V20h17.5c8.1,0,14.4,2.7,18.9,8.1c4.5,5.4,6.7,12.4,6.7,21c0,8.6-2.2,15.7-6.6,21.5c-4.4,5.8-10.5,8.6-18.3,8.6H614.7z"/>
	<rect x="9.3" y="3.3" class="st1" width="781.4" height="223.4"/>
	<polygon class="st0" points="667,79.2 667,20 701.5,20 701.5,30.3 680.5,30.3 680.5,44.1 700,44.1 700,54.3 680.5,54.3 680.5,69 
		702.3,69 702.3,79.2 	"/>
	<polygon class="st0" points="720.4,79.2 720.4,30.3 706.9,30.3 706.9,20 747.4,20 747.4,30.3 733.9,30.3 733.9,79.2 	"/>
	<polygon class="st0" points="750.2,20 750.2,30.3 763.7,30.3 763.7,79.2 777.2,79.2 777.2,30.3 790.7,30.3 790.7,20 	"/>
	<path class="st0" d="M12.3,218.3v-22.9c9.1,7.5,16.6,11.2,22.5,11.2c2.8,0,5.2-0.8,7-2.5c1.9-1.7,2.8-3.8,2.8-6.3
		c0-2.2-0.7-4.6-2.2-7.2c-1.5-2.6-5.8-7.4-13.1-14.3c-7.3-6.9-12.1-12.8-14.4-17.7c-2.3-4.9-3.5-9.5-3.5-14.1c0-7.6,2.9-14,8.8-19.3
		c5.9-5.2,13.1-7.9,21.8-7.9c7.6,0,15.3,2.2,23.2,6.6v20c-9-5.1-15.9-7.6-20.6-7.6c-2.9,0-5.3,0.7-7.1,2c-1.8,1.3-2.7,3.1-2.7,5.3
		c0,1.7,0.7,3.6,2.1,5.9c1.4,2.2,5.8,7,13.3,14.2c7.5,7.2,12.5,13.4,15.2,18.6c2.6,5.2,4,10,4,14.7c0,8.5-3,15.6-8.9,21.3
		c-5.9,5.7-13.3,8.5-22.1,8.5C30.3,226.7,21.6,223.9,12.3,218.3"/>
	<rect x="9.3" y="3.3" class="st1" width="781.4" height="223.4"/>
	<polygon class="st0" points="85.6,118.7 85.6,225.3 149.2,225.3 149.2,206.9 109.9,206.9 109.9,180.4 145.1,180.4 145.1,162 
		109.9,162 109.9,137.2 147.7,137.2 147.7,118.7 	"/>
	<path class="st0" d="M161.7,218.3v-22.9c9.1,7.5,16.6,11.2,22.5,11.2c2.8,0,5.2-0.8,7-2.5s2.8-3.8,2.8-6.3c0-2.2-0.7-4.6-2.2-7.2
		c-1.5-2.6-5.8-7.4-13.1-14.3c-7.3-6.9-12.1-12.8-14.4-17.7c-2.3-4.9-3.5-9.5-3.5-14.1c0-7.6,2.9-14,8.8-19.3
		c5.9-5.2,13.1-7.9,21.8-7.9c7.6,0,15.3,2.2,23.2,6.6v20c-9-5.1-15.9-7.6-20.6-7.6c-2.9,0-5.3,0.7-7.1,2c-1.8,1.3-2.7,3.1-2.7,5.3
		c0,1.7,0.7,3.6,2.1,5.9c1.4,2.2,5.8,7,13.3,14.2c7.5,7.2,12.5,13.4,15.2,18.6c2.6,5.2,4,10,4,14.7c0,8.5-3,15.6-8.9,21.3
		c-5.9,5.7-13.3,8.5-22.1,8.5C179.8,226.7,171.1,223.9,161.7,218.3"/>
	<path class="st0" d="M231.7,218.3v-22.9c9.1,7.5,16.6,11.2,22.5,11.2c2.8,0,5.2-0.8,7-2.5c1.9-1.7,2.8-3.8,2.8-6.3
		c0-2.2-0.7-4.6-2.2-7.2c-1.5-2.6-5.8-7.4-13.1-14.3c-7.3-6.9-12.1-12.8-14.4-17.7c-2.3-4.9-3.5-9.5-3.5-14.1c0-7.6,2.9-14,8.8-19.3
		c5.9-5.2,13.1-7.9,21.8-7.9c7.6,0,15.3,2.2,23.2,6.6v20c-9-5.1-15.9-7.6-20.6-7.6c-2.9,0-5.3,0.7-7.1,2c-1.8,1.3-2.7,3.1-2.7,5.3
		c0,1.7,0.7,3.6,2.1,5.9c1.4,2.2,5.8,7,13.3,14.2c7.5,7.2,12.5,13.4,15.2,18.6c2.6,5.2,4,10,4,14.7c0,8.5-3,15.6-8.9,21.3
		c-5.9,5.7-13.3,8.5-22.1,8.5C249.7,226.7,241,223.9,231.7,218.3"/>
	<rect x="9.3" y="3.3" class="st1" width="781.4" height="223.4"/>
	<rect x="305.4" y="118.7" class="st0" width="24.2" height="106.6"/>
	<path class="st0" d="M388.3,138.2c-5.9,0-10.3,2.7-13.1,8.1c-2.8,5.4-4.2,13.9-4.2,25.7c0,11.9,1.4,20.6,4.2,25.9
		c2.8,5.3,7.2,8,13.2,8c6.2,0,10.7-2.7,13.3-8.2c2.6-5.5,4-14,4-25.6c0-12-1.4-20.7-4.3-25.9C398.4,140.9,394.1,138.2,388.3,138.2
		 M388.3,226.7c-12.2,0-22.2-4.9-30.1-14.6c-7.9-9.7-11.8-23.4-11.8-41.1c0-16.4,4.1-29.4,12.2-39.1c8.1-9.7,18.1-14.5,29.8-14.5
		c12,0,22,4.8,30,14.3c8,9.6,12,23,12,40.5c0,17.6-4,31.1-12.1,40.5C410.1,222,400.1,226.7,388.3,226.7"/>
	<rect x="9.3" y="3.3" class="st1" width="781.4" height="223.4"/>
	<polygon class="st0" points="498.7,118.7 498.7,179 498.4,179 469.5,118.7 447.1,118.7 447.1,225.3 469.9,225.3 469.9,162.5 
		470.2,162.5 500.5,225.3 521.5,225.3 521.5,118.7 	"/>
	<rect x="594.9" y="118.7" class="st0" width="24.2" height="106.6"/>
	<path class="st0" d="M664.4,163.5h7c9.4,0,14.2-4.4,14.2-13.1c0-8.8-4.5-13.3-13.4-13.3h-7.8V163.5z M640.1,225.3V118.7h34.5
		c10.9,0,19.5,3.1,25.7,9.3c6.2,6.2,9.4,13.8,9.4,22.7c0,9.2-3,16.7-8.9,22.5c-5.9,5.8-14.7,8.7-26.4,8.7h-10.1v43.4H640.1z"/>
	<rect x="9.3" y="3.3" class="st1" width="781.4" height="223.4"/>
	<path class="st0" d="M746.4,147.2l8.5,38.7h-17L746.4,147.2z M733.9,118.1l-28,107.2h23.4l5.2-22.2h24l5,22.2H787l-27.9-107.2
		H733.9z"/>
	<path class="st2" d="M455.7,26.7c10-6.4,7.6-11.4,14.6-19.4c-1.3,3.8,3.7,14.3-3.9,29.8c8.9-1.8,15.6-11.1,23.7-11
		c-8.1,6.7-6.4,19.5-18.1,24.2c7.7,5.6,17.9,2,24,7.5c-11.2,1.6-16.1,9.1-29,8.5c2.6,8.8,13.5,10.1,16.2,18.2
		c-7.6-4.7-20.3,0.4-29.3-10.1c-3,8.9,3.4,16.7,3.1,23.8c-5-6-16.4-10.1-18.9-23.5c-7.9,5.4-6.9,15.4-17.4,19.9
		c4.9-9.3,1.5-19.7,6.6-30.3c-7.7-0.7-18.1,7.5-25.2,8.5c6.6-4.8,9.2-16.1,19.7-21.6c-8-6.4-16-5-24-7.5c10.5-2.8,15.8-8.9,29-8.4
		c-2.6-9.6-13.1-11.5-14.7-18.5c9.8,5.3,20.2,2.5,27.8,10.3c4-5.6-2.6-16.7,0-23.7C441.7,10.9,454,16.3,455.7,26.7"/>
	<path class="st0" d="M440.8,35.4c0,0-5.4-0.6-7.9,1.3c0,0-3.4,0.1-4.6,2.5c0,0-3.9,3.1-3.9,7.2c0,0-3.8,4.3-3.6,5.9
		c0,0,1.4,5.8,13.3,6c11.8,0.2,17.9-3.5,19.7-5.4c1.8-1.9,3.8-5.3,6.1-5c0,0,1-0.1,0.4-0.6c-0.6-0.5-4-1.6-4.3-2.6
		c-0.3-1-3.2-7.3-7.9-8.2C448,36.5,443.2,34.6,440.8,35.4"/>
	<path class="st0" d="M421,53.2c0,0-2.1,1.6-3.9,2.6c-1.8,1,2.9,5,4.4,5c0,0,0.8-1.6,1-2c0.2-0.4,3-2.2,3-2.2s11.5,6.5,27.5,3.2
		c0,0,0.8,4.7-1.1,7c-1.9,2.3,1.7,4.4,3.8,3.7c2.1-0.7,6.7-7,4.2-12.3h1.9c0,0,2.4,2.2,2.7,2.6c0.3,0.3,4.1,0.4,4.9-0.1
		c0.8-0.5-1.8-4.4-1.8-4.4s1.4-0.9,1.9-1c0.5-0.1,2-1.4,2.3-2.3l1.1-0.3l0.4-3.4c0,0-2.4-1.8-5.5-2.4c-3.1-0.6-6,1.9-6.7,2.4
		c-0.7,0.5-2.6-0.9-2.6-0.9"/>
	<path class="st3" d="M462.9,48.1c0,0,0.2,1.5,1.6,1.3c1.4-0.2,2.2-1.4,3.9-0.6c1.7,0.8,4,0.5,4.2,0
		C472.8,48.3,465.6,44.9,462.9,48.1"/>
	<path class="st3" d="M426.6,57.3c0,0,14.3,2.9,25.1-2.7c0,0,1.6,3.6,1.2,5.4c0,0-11.9,1.3-14.5,0.6
		C435.7,59.9,426.6,57.3,426.6,57.3"/>
	<path class="st3" d="M460.3,49.4c0,0-2.5,1.6-2.4,3.1c0.1,1.5,1.6,4.9,5.8,5l-3.4,0.7c0,0-5.2-4.4-7.4-4.5l2.5-2.8l1.1-2.1l1.8-0.7
		L460.3,49.4z"/>
	<rect x="9.3" y="3.3" class="st1" width="781.4" height="223.4"/>
	<polygon class="st3" points="462.4,58.2 465.6,56.6 467.6,55.7 468,57 469,58.8 469.5,59.9 469.3,60.7 466.5,61.1 464.6,61.1 
		462.9,59.4 	"/>
	<g>
		<defs>
			<rect id="SVGID_1_" x="9.3" y="3.3" width="781.4" height="223.4"/>
		</defs>
		<clipPath id="SVGID_2_">
			<use xlink:href="#SVGID_1_"  style="overflow:visible;"/>
		</clipPath>
		<path class="st4" d="M454.6,71.2c-1.3,0-2.7-0.7-3.4-1.7c-0.7-1-0.6-2.1,0.2-3c1.4-1.7,1.2-4.8,1.1-6c-3.5,0.7-7.1,1-10.6,0.8
			c-3-0.1-5.9-0.6-8.8-1.3c-4.1-1-6.8-2.3-7.6-2.8c-1.1,0.7-2.3,1.6-2.5,1.8c-0.2,0.5-0.9,1.8-1,2c-0.1,0.2-0.3,0.3-0.4,0.3
			c-1,0-2.5-1.2-3-1.5c-0.6-0.5-2-1.7-2.3-2.9c-0.2-0.7,0-1.2,0.6-1.6c1.8-1,3.9-2.6,3.9-2.6c0.2-0.2,0.5-0.1,0.7,0.1
			c0.2,0.2,0.1,0.5-0.1,0.7c-0.1,0.1-2.2,1.6-4,2.6c-0.1,0.1-0.2,0.1-0.1,0.4c0.2,0.6,0.9,1.5,1.9,2.3c0.8,0.7,1.6,1.1,2.1,1.3
			c0.3-0.6,0.7-1.4,0.8-1.6c0.1-0.2,0.3-0.5,1.7-1.5c0.7-0.5,1.4-0.9,1.4-0.9c0.2-0.1,0.4-0.1,0.5,0c0,0,2.9,1.6,7.6,2.8
			c2.8,0.7,5.7,1.1,8.6,1.2c3.6,0.2,7.3-0.2,10.9-0.9c0.1,0,0.3,0,0.4,0.1c0.1,0.1,0.2,0.2,0.2,0.3c0,0.2,0.8,4.9-1.2,7.4
			c-0.5,0.6-0.6,1.2-0.1,1.8c0.7,0.9,2.3,1.5,3.4,1.1c0.9-0.3,2.7-2.1,3.8-4.8c0.7-1.7,1.3-4.3,0.1-6.8c-0.1-0.2-0.1-0.3,0-0.5
			c0.1-0.1,0.3-0.2,0.4-0.2h1.9c0.1,0,0.2,0,0.3,0.1c0,0,2.2,2.1,2.7,2.5c0.2,0.1,1.1,0.2,2.1,0.2c1.1,0,1.9-0.1,2.2-0.2
			c0-0.2-0.1-0.7-0.8-2c-0.5-0.9-1-1.7-1-1.7c-0.1-0.1-0.1-0.2-0.1-0.4c0-0.1,0.1-0.2,0.2-0.3c0.2-0.2,1.5-1,2.1-1.1
			c0.3-0.1,1.7-1.2,2-2c0.1-0.2,0.2-0.3,0.4-0.3l0.8-0.2l0.3-2.7c-0.7-0.4-2.7-1.7-5.1-2.1c-2.5-0.5-4.9,1.3-5.9,2
			c-0.2,0.1-0.3,0.2-0.4,0.3c-0.5,0.3-1.2,0.2-2.1-0.3c-0.6-0.3-1.1-0.7-1.1-0.7c-0.2-0.2-0.3-0.5-0.1-0.7c0.2-0.2,0.5-0.3,0.7-0.1
			c0,0,0.4,0.3,0.9,0.6c0.7,0.4,1,0.3,1,0.3c0.1-0.1,0.2-0.2,0.4-0.3c1.1-0.8,3.8-2.7,6.7-2.2c3.2,0.6,5.6,2.4,5.7,2.4
			c0.1,0.1,0.2,0.3,0.2,0.5l-0.4,3.4c0,0.2-0.2,0.4-0.4,0.4l-0.9,0.2c-0.3,0.6-0.8,1.1-1.1,1.4c-0.2,0.2-0.9,0.9-1.5,1
			c-0.2,0-0.8,0.4-1.3,0.7c0.2,0.3,0.5,0.8,0.8,1.3c1,1.8,1,2.5,0.9,2.8c-0.1,0.3-0.2,0.5-0.4,0.6c-0.6,0.4-2.1,0.4-2.9,0.4
			c-0.6,0-1.1,0-1.5-0.1c-0.7-0.1-0.9-0.2-1.1-0.3c-0.3-0.3-2.1-1.9-2.6-2.4h-0.9c0.4,1,0.5,2.1,0.5,3.2c-0.1,1.2-0.3,2.5-0.9,3.7
			c-1,2.5-3,4.8-4.4,5.3C455.4,71.1,455,71.2,454.6,71.2"/>
		<path class="st4" d="M461.4,58.7c0,0,3.5-0.6,4.7-2.4c0,0-2.2,1.3-6.3,1.4"/>
		<path class="st4" d="M454,54c-0.2-0.1,4.8,1.4,6.3,3.7l-1,0.7C459.3,58.5,458.8,56.6,454,54"/>
		<path class="st4" d="M452.8,57.5c0,0,0.6,2,0.7,2.9l-1.1-0.8C452.4,59.6,452.9,58.3,452.8,57.5"/>
		<path class="st4" d="M465.9,54c0,0,2.5-0.5,3.2-1.5l3.4-0.3l-0.3,1.1l-3-0.2C469.2,53.2,467.9,54.3,465.9,54"/>
		<path class="st4" d="M468.1,51.1c0,0.4-0.3,0.7-0.7,0.7c-0.4,0-0.7-0.3-0.7-0.7c0-0.4,0.3-0.7,0.7-0.7
			C467.8,50.4,468.1,50.7,468.1,51.1"/>
		<path class="st4" d="M439.3,58.1c-0.9-1.6-0.5-7.8-0.5-8.1l0.4,0c0,0.1-0.5,6.4,0.4,7.9L439.3,58.1z"/>
		<path class="st5" d="M431,58.1c0,0,1.4-7.2,2.5-7.3c0,0-2.4-0.4-2.2-1.3c0.2-0.9,0.5-4.9,4.1-10.8l2.5-1.2l1.2-0.9l0.9-1
			c0,0-5.4-0.1-7,0.7c-1.6,0.8-3.6,1.3-3.8,1.8c-0.1,0.5-1.1,1-2.9,3.8c-1.8,2.8-2.1,4.5-2.1,4.5s-3.9,5-3.6,5.9
			C421,53.2,425.5,58.4,431,58.1"/>
	</g>
	<polygon class="st6" points="423.6,55.4 423.2,55.2 427.2,48.4 427.5,48.6 	"/>
	<g>
		<defs>
			<rect id="SVGID_3_" x="9.3" y="3.3" width="781.4" height="223.4"/>
		</defs>
		<clipPath id="SVGID_4_">
			<use xlink:href="#SVGID_3_"  style="overflow:visible;"/>
		</clipPath>
		<path class="st7" d="M431.1,57.6l-0.4,0c0.1-1.1,0.5-2.6,1.3-4.5c0.6-1.4,1.1-2.5,1.1-2.5l0.3,0.2
			C433.5,50.8,431.3,54.9,431.1,57.6"/>
		<path class="st8" d="M455.5,43.5c0,0-2.2,2.3-6,1.8c0,0-0.9,2.4-3.4,3.2c-2.6,0.8,0.1,0.4,0.1,0.4l-2.6,0.4c0,0,3.7,6.2,3.7,6.9
			c0,0.8-0.2,0.2-0.2,0.2s4.4-3.1,4.2-4.7c0,0,2.7-1.6,2.3-4.8c0,0,2,0.6,3.8-1.3l-1-0.7L455.5,43.5z"/>
		<path class="st7" d="M456.5,49c-1-0.1-2.1-0.8-3.1-2.1c-0.7-0.9-1.2-1.7-1.2-1.8l0.3-0.2c0,0,1.7,3.3,4,3.6L456.5,49z"/>
		<path class="st7" d="M453.3,53.4c-0.2,0-0.5,0-3.3-2.6c-1.4-1.3-2.6-2.5-2.6-2.5l0.3-0.3c3.1,3.1,5.3,5,5.7,5L453.3,53.4z"/>
		<path class="st7" d="M447.1,56.5l-0.4,0c0-0.5-0.3-1.6-1.8-4.1c-0.9-1.5-1.8-2.8-1.8-2.9l0.3-0.2
			C443.6,49.5,447.2,54.7,447.1,56.5"/>
	</g>
	<polygon class="st6" points="424.9,46.4 424.8,46.1 426.8,45.3 429.7,39.4 429,38.8 429.2,38.5 430.1,39.3 427.1,45.6 	"/>
	<g>
		<defs>
			<rect id="SVGID_5_" x="9.3" y="3.3" width="781.4" height="223.4"/>
		</defs>
		<clipPath id="SVGID_6_">
			<use xlink:href="#SVGID_5_"  style="overflow:visible;"/>
		</clipPath>
		<path class="st9" d="M430.1,49.7c-0.4,0-0.9-0.1-1.5-0.3c-1-0.4-1.7-1-2-1.7c-0.3-0.7-0.2-1.5,0.2-2.3l0.4,0.2
			c-0.4,0.8-0.4,1.4-0.2,2c0.3,0.6,0.9,1.1,1.8,1.5c1.3,0.5,2,0.2,2.3,0.1c0-1.7,0.7-3.6,0.7-3.7l0,0l3.2-6.8l-1.7-0.7l-3.3,1.7
			l-0.2-0.3l3.5-1.8l2.2,1l-3.4,7.2c0,0.1-0.8,2.1-0.7,3.7l0,0.1l-0.1,0.1C431.3,49.4,430.9,49.7,430.1,49.7"/>
		<path class="st9" d="M435.3,51c-0.2,0-0.5,0-0.7,0c-1.7-0.1-2.8-0.5-3.3-1.1c-0.3-0.3-0.3-0.7-0.3-0.7l0.4,0l0,0
			c0,0,0,1.1,3.2,1.4c3,0.2,5-1.1,5.5-1.5c-0.6-2.6-0.2-5.4,0.2-7.2c0.4-1.6,0.8-2.8,1-3.2l-2.3-1.9l-3.6,1.8l-0.2-0.3l3.8-1.9
			l2.7,2.2l-0.1,0.1c0,0-0.6,1.4-1,3.3c-0.4,1.8-0.8,4.5-0.2,7.1l0,0.1l-0.1,0.1c0,0-0.6,0.5-1.6,0.9C438,50.6,436.8,51,435.3,51"/>
		<path class="st9" d="M441.6,49.9c-0.6,0-1.1-0.1-1.5-0.5l0.3-0.3c0.8,0.7,2,0.4,3.6,0c0.6-0.2,1.3-0.3,2-0.5
			c2.5-0.5,3.1-3.4,3.1-3.4l0,0c0-0.1-0.1-0.6-0.5-1.2c-0.4-0.5-0.8-1.1-1-1.3c-0.5-0.4-1.6-3.1-1.9-3.7h-4.1v-0.4h4.4l0.1,0.1
			c0.5,1.3,1.5,3.4,1.8,3.7c0.5,0.4,1.9,2.2,1.7,2.9c0,0.1-0.2,0.8-0.7,1.7c-0.7,1.1-1.6,1.9-2.7,2.1c-0.7,0.1-1.3,0.3-1.9,0.5
			C443.2,49.7,442.4,49.9,441.6,49.9"/>
		<path class="st9" d="M450.7,45.5c-0.4,0-0.9,0-1.4-0.1l0.1-0.4c3.3,0.5,5.3-1,5.7-1.3c-0.4-2.4-3.6-5.5-4-5.9l-2.9-0.6l-2.2,1.6
			l-0.2-0.3l2.3-1.7l3.2,0.6l0,0c0,0,1,0.9,1.9,2.1c1.3,1.6,2.1,3,2.3,4.1l0,0.1l-0.1,0.1c0,0-0.5,0.5-1.6,1
			C453.1,45.2,452.1,45.5,450.7,45.5"/>
	</g>
	<rect x="433.1" y="36.3" class="st6" width="0.4" height="1.3"/>
	<polygon class="st6" points="438.9,36.5 439.1,36.8 441.3,35.1 441.1,34.8 	"/>
	<g>
		<defs>
			<rect id="SVGID_7_" x="9.3" y="3.3" width="781.4" height="223.4"/>
		</defs>
		<clipPath id="SVGID_8_">
			<use xlink:href="#SVGID_7_"  style="overflow:visible;"/>
		</clipPath>
		<path class="st10" d="M421.2,52.2c0.1,0.2,0.5,1.4,2.1,2.7c1,0.8,2.3,1.4,3.8,1.9c1.9,0.6,4.2,0.9,6.8,1c0.3,0,0.5,0,0.8,0
			c4.9,0,9.2-0.7,12.8-2c2.5-0.9,4.6-2.1,5.7-3.3c0.4-0.4,0.8-0.9,1.3-1.5c1.4-1.7,2.9-3.6,4.8-3.7c-0.2-0.1-0.5-0.2-0.8-0.4
			c-1.7-0.8-2.9-1.4-3.1-2.2c-0.1-0.4-0.9-2.2-2.2-4c-1.1-1.5-3-3.4-5.3-3.8c0,0-0.1,0-0.1,0c0,0-3.3-1.2-5.7-1.2
			c-0.5,0-0.9,0-1.2,0.2c-0.1,0-0.1,0-0.2,0c0,0-0.8-0.1-1.9-0.1c-1.5,0-4.2,0.2-5.7,1.3c-0.1,0.1-0.2,0.1-0.3,0.1
			c0,0-0.8,0-1.7,0.3c-1.2,0.4-2,1-2.5,1.9c0,0.1-0.1,0.1-0.1,0.2c0,0-0.9,0.8-1.9,2c-0.8,1.1-1.8,2.9-1.8,4.9c0,0.1,0,0.2-0.1,0.3
			c0,0-0.9,1.1-1.8,2.3C421.4,51.1,421.2,51.9,421.2,52.2 M434.8,58.7c-0.3,0-0.5,0-0.8,0c-2.7,0-5.2-0.4-7.2-1
			c-1.6-0.5-3.1-1.2-4.2-2.1c-1.9-1.6-2.4-3.1-2.4-3.2c0,0,0-0.1,0-0.1c-0.1-0.8,0.6-2.1,1.9-3.9c0.7-1,1.5-1.9,1.8-2.2
			c0-1.8,0.7-3.6,2-5.3c0.8-1.1,1.7-1.9,1.9-2.1c1.3-2.3,4.1-2.6,4.9-2.7c1.6-1.1,4.2-1.4,6.2-1.4c0.9,0,1.6,0.1,1.9,0.1
			c0.4-0.1,0.9-0.2,1.4-0.2c2.4,0,5.6,1.1,6,1.3c1.1,0.2,2.3,0.8,3.3,1.6c0.9,0.7,1.7,1.6,2.5,2.6c1.4,1.8,2.2,3.7,2.4,4.3
			c0,0,0.1,0.2,0.8,0.7c0.5,0.3,1.2,0.6,1.8,0.9c0.8,0.4,1.3,0.6,1.5,0.8c0.4,0.4,0.4,0.7,0.3,0.9c-0.2,0.5-0.8,0.6-1,0.6
			c0,0-0.1,0-0.1,0c-0.1,0-0.1,0-0.2,0c-1.5,0-2.9,1.8-4.2,3.4c-0.4,0.6-0.9,1.1-1.3,1.5c-0.6,0.6-2.3,2.2-6.1,3.5
			C444.2,58.1,439.8,58.7,434.8,58.7"/>
	</g>
	<polygon class="st0" points="38,20 38,53.5 37.8,53.5 21.8,20 9.3,20 9.3,79.2 21.9,79.2 21.9,44.3 22.1,44.3 39,79.2 50.6,79.2 
		50.6,20 	"/>
	<polygon class="st0" points="62.4,79.2 62.4,20 96.9,20 96.9,30.3 75.8,30.3 75.8,44.1 95.4,44.1 95.4,54.3 75.8,54.3 75.8,69 
		97.7,69 97.7,79.2 	"/>
	<polygon class="st0" points="120,80 101.4,20 114.4,20 122.8,51.3 122.9,51.3 132.4,20 143.1,20 152.4,51.3 152.6,51.3 161.2,20 
		174.1,20 155.6,80 149.8,80 137.8,41.7 137.6,41.7 125.8,80 	"/>
	<path class="st0" d="M243.3,67.6v11.7h-38.2v-1c3.8-4.1,8.4-10.8,13.9-20c5.5-9.2,8.2-15.7,8.2-19.3c0-2.5-0.8-4.6-2.4-6.3
		c-1.6-1.7-3.6-2.5-6-2.5c-3.4,0-7.4,1.4-11.9,4.3V23.7c4.9-2.9,10-4.4,15.3-4.4c5.1,0,9.3,1.5,12.6,4.6c3.3,3,5,6.9,5,11.6
		c0,4.3-1.2,9-3.7,14.1c-2.5,5.1-6.2,11.1-11.2,18.1H243.3z"/>
	<path class="st0" d="M253.5,92.4v-2.2c2.6-2.2,4.1-5.8,4.5-10.6c-3.2-1.3-4.9-3.6-4.9-6.9c0-1.9,0.7-3.5,2-4.8c1.3-1.3,3-2,4.8-2
		c2.4,0,4.4,0.9,5.9,2.7c1.5,1.8,2.3,4.2,2.3,7.2C268.2,84.3,263.3,89.8,253.5,92.4"/>
	<rect x="9.3" y="3.3" class="st1" width="781.4" height="223.4"/>
	<polygon class="st0" points="281.3,75.3 297,31.7 275.2,31.7 275.2,20 313.5,20 313.5,22.6 292.9,80 	"/>
	<path class="st0" d="M367.9,54.6c-1.2,0-2,0.7-2.4,2.2c-0.4,1.5-0.6,3.9-0.6,7.3c0,3.4,0.2,5.8,0.7,7.2c0.4,1.4,1.2,2.2,2.4,2.2
		c1.2,0,2-0.7,2.5-2.1s0.7-3.8,0.7-7.2c0-3.4-0.2-5.8-0.7-7.3C370,55.3,369.2,54.6,367.9,54.6 M367.9,79.7c-3.8,0-6.8-1.3-8.9-4
		c-2.1-2.7-3.1-6.5-3.1-11.5c0-5.1,1-8.9,3.1-11.6c2.1-2.7,5-4.1,8.9-4.1c3.8,0,6.8,1.4,8.9,4.1c2.1,2.7,3.1,6.6,3.1,11.6
		c0,5-1.1,8.8-3.1,11.5C374.8,78.3,371.8,79.7,367.9,79.7 M328.6,81.5l33.2-63.8h8.3l-32.9,63.8H328.6z M330.9,25.5
		c-1.2,0-1.9,0.7-2.4,2.2c-0.4,1.5-0.6,3.9-0.6,7.3c0,3.4,0.2,5.8,0.6,7.2c0.4,1.4,1.2,2.2,2.4,2.2c1.2,0,2-0.7,2.5-2.2
		c0.4-1.4,0.7-3.9,0.7-7.2c0-3.4-0.2-5.8-0.7-7.3C332.9,26.2,332.1,25.5,330.9,25.5 M330.9,50.5c-3.8,0-6.8-1.3-8.8-4
		c-2.1-2.7-3.1-6.6-3.1-11.6c0-5,1-8.9,3.1-11.6c2.1-2.7,5-4.1,8.8-4.1c3.9,0,6.8,1.4,8.9,4.1c2.1,2.7,3.1,6.6,3.1,11.6
		c0,5-1,8.8-3.1,11.6C337.8,49.2,334.8,50.5,330.9,50.5"/>
	<rect x="9.3" y="3.3" class="st1" width="781.4" height="223.4"/>
</g>
</svg>
