<svg id="Layer_1" xmlns="http://www.w3.org/2000/svg" viewBox="0 0 800 230"><style>.st0{fill:#0055B8;} .st1{fill:#E20613;} .st2{fill:#FFFFFF;} .st3{fill:#C6C6C5;} .st4{fill:#1D1D1B;}</style><path class="st0" d="M538.3 80l-19.9-60.1H532l9.2 30.6h.1l8.6-30.6h13.6l-19 60.1zM570.6 79.2V19.9h34.6v10.3h-21.1V44h19.6v10.2h-19.6v14.7H606v10.3zM628.4 69.2h3.2c4.4 0 7.6-1.5 9.7-4.6 2.1-3.1 3.1-8 3.1-14.8 0-13.3-4-19.9-12-19.9h-3.9v39.3zm-13.5 10V19.9h17.5c8.1 0 14.4 2.7 18.9 8.1 4.5 5.4 6.7 12.4 6.7 21s-2.2 15.7-6.6 21.5c-4.4 5.8-10.5 8.6-18.3 8.6h-18.2zM667.3 79.2V19.9h34.5v10.3h-21V44h19.6v10.2h-19.6v14.7h21.8v10.3zM720.7 79.2v-49h-13.5V19.9h40.5v10.3h-13.5v49zM750.6 19.9v10.3h13.5v49h13.5v-49h13.5V19.9zM11.9 218.4v-23c9.1 7.5 16.6 11.2 22.5 11.2 2.8 0 5.2-.8 7.1-2.5 1.9-1.7 2.8-3.8 2.8-6.3 0-2.2-.7-4.6-2.2-7.2s-5.8-7.4-13.1-14.3-12.1-12.8-14.4-17.7c-2.3-4.9-3.5-9.5-3.5-14.1 0-7.6 2.9-14.1 8.8-19.3 5.9-5.2 13.1-7.9 21.8-7.9 7.6 0 15.3 2.2 23.3 6.6v20c-9.1-5.1-15.9-7.6-20.6-7.6-2.9 0-5.3.7-7.1 2-1.8 1.3-2.7 3.1-2.7 5.3 0 1.7.7 3.6 2.1 5.9 1.4 2.2 5.8 7 13.3 14.2 7.5 7.2 12.5 13.4 15.2 18.6 2.6 5.2 4 10.1 4 14.7 0 8.5-3 15.6-8.9 21.3-5.9 5.7-13.3 8.5-22.1 8.5-8.3 0-17-2.8-26.3-8.4M85.3 118.7v106.7h63.6V207h-39.3v-26.6h35.2v-18.3h-35.2v-24.9h37.9v-18.5zM161.5 218.4v-23c9.1 7.5 16.6 11.2 22.5 11.2 2.8 0 5.2-.8 7.1-2.5 1.9-1.7 2.8-3.8 2.8-6.3 0-2.2-.7-4.6-2.2-7.2-1.5-2.6-5.8-7.4-13.1-14.3s-12.1-12.8-14.4-17.7c-2.3-4.9-3.5-9.5-3.5-14.1 0-7.6 2.9-14.1 8.8-19.3 5.9-5.2 13.1-7.9 21.8-7.9 7.6 0 15.3 2.2 23.3 6.6v20c-9.1-5.1-15.9-7.6-20.6-7.6-2.9 0-5.3.7-7.1 2-1.8 1.3-2.7 3.1-2.7 5.3 0 1.7.7 3.6 2.1 5.9 1.4 2.2 5.8 7 13.3 14.2 7.5 7.2 12.5 13.4 15.2 18.6 2.6 5.2 4 10.1 4 14.7 0 8.5-3 15.6-8.9 21.3-5.9 5.7-13.3 8.5-22.1 8.5-8.3 0-17-2.8-26.3-8.4M231.5 218.4v-23c9.1 7.5 16.6 11.2 22.5 11.2 2.8 0 5.2-.8 7.1-2.5 1.9-1.7 2.8-3.8 2.8-6.3 0-2.2-.7-4.6-2.2-7.2s-5.8-7.4-13.1-14.3-12.1-12.8-14.4-17.7c-2.3-4.9-3.5-9.5-3.5-14.1 0-7.6 2.9-14.1 8.8-19.3 5.9-5.2 13.1-7.9 21.8-7.9 7.6 0 15.3 2.2 23.3 6.6v20c-9.1-5.1-15.9-7.6-20.6-7.6-2.9 0-5.3.7-7.1 2-1.8 1.3-2.7 3.1-2.7 5.3 0 1.7.7 3.6 2.1 5.9 1.4 2.2 5.8 7 13.3 14.2 7.5 7.2 12.5 13.4 15.2 18.6 2.6 5.2 4 10.1 4 14.7 0 8.5-3 15.6-8.9 21.3-5.9 5.7-13.3 8.5-22.1 8.5-8.2 0-16.9-2.8-26.3-8.4M305.3 118.7h24.3v106.7h-24.3zM388.2 138.3c-5.9 0-10.3 2.7-13.2 8.1-2.8 5.4-4.2 14-4.2 25.7 0 11.9 1.4 20.6 4.2 25.9 2.8 5.3 7.2 8 13.2 8 6.3 0 10.7-2.7 13.3-8.2 2.6-5.5 4-14 4-25.7 0-12.1-1.4-20.7-4.3-25.9-2.8-5.3-7.1-7.9-13-7.9m0 88.5c-12.2 0-22.3-4.9-30.2-14.6-7.9-9.7-11.9-23.5-11.9-41.1 0-16.4 4.1-29.5 12.2-39.2s18.1-14.5 29.8-14.5c12.1 0 22.1 4.8 30.1 14.3 8 9.6 12 23.1 12 40.5 0 17.6-4 31.1-12.1 40.5-8 9.4-18 14.1-29.9 14.1M498.8 118.7v60.4h-.3l-28.9-60.4h-22.5v106.7h22.8v-62.9h.3l30.4 62.9h21V118.7zM595.1 118.7h24.3v106.7h-24.3zM664.6 163.6h7c9.5 0 14.2-4.4 14.2-13.1 0-8.8-4.5-13.3-13.4-13.3h-7.8v26.4zm-24.2 61.8V118.7H675c10.9 0 19.5 3.1 25.8 9.3 6.3 6.2 9.4 13.8 9.4 22.8 0 9.2-3 16.7-8.9 22.5-5.9 5.8-14.7 8.7-26.4 8.7h-10.1v43.4h-24.4zM746.8 147.2l8.5 38.7h-17l8.5-38.7zm-12.5-29.1l-28 107.3h23.4l5.2-22.2h24l5 22.2h23.4l-27.9-107.3h-25.1z"/><path class="st1" d="M455.7 26.6c10-6.4 7.6-11.5 14.7-19.4-1.3 3.8 3.7 14.3-3.9 29.8 8.9-1.8 15.6-11.1 23.7-11-8.1 6.8-6.4 19.5-18.1 24.2 7.7 5.7 17.9 2 24 7.5-11.2 1.6-16.1 9.1-29 8.5 2.6 8.8 13.5 10.1 16.2 18.3-7.6-4.7-20.3.4-29.4-10.1-3 8.9 3.4 16.7 3.1 23.8-5-6.1-16.5-10.1-19-23.5-7.9 5.4-6.9 15.4-17.4 20 4.9-9.3 1.5-19.7 6.6-30.4-7.7-.7-18.1 7.5-25.2 8.5 6.6-4.8 9.2-16.2 19.7-21.6-8-6.4-16-5-24-7.5 10.5-2.8 15.8-8.9 29-8.5-2.6-9.7-13.2-11.5-14.7-18.5 9.8 5.3 20.2 2.5 27.8 10.3 4-5.6-2.6-16.7 0-23.7 1.9 7.5 14.2 12.9 15.9 23.3"/><path class="st2" d="M440.8 35.3s-5.4-.6-7.9 1.3c0 0-3.4.1-4.6 2.5 0 0-3.9 3.1-3.9 7.2 0 0-3.8 4.3-3.6 5.9 0 0 1.4 5.8 13.3 6 11.8.2 17.9-3.5 19.7-5.4 1.8-1.9 3.8-5.3 6.1-5 0 0 1-.1.4-.6s-4-1.6-4.3-2.6c-.3-1-3.2-7.3-7.9-8.2 0 0-4.9-1.9-7.3-1.1"/><path class="st2" d="M421 53.2s-2.1 1.6-3.9 2.6c-1.8 1 2.9 5 4.4 5l1-2c.2-.4 3-2.2 3-2.2s11.5 6.5 27.5 3.2c0 0 .8 4.7-1.1 7-1.9 2.3 1.7 4.4 3.8 3.7 2.1-.7 6.7-7.1 4.2-12.3h1.9s2.4 2.2 2.7 2.6c.3.3 4.1.4 4.9-.1.8-.5-1.8-4.4-1.8-4.4s1.4-.9 1.9-1c.5-.1 2-1.4 2.4-2.3l1.1-.3.4-3.4s-2.4-1.8-5.6-2.4c-3.1-.6-6 1.9-6.7 2.4-.7.5-2.6-.9-2.6-.9"/><path class="st3" d="M463 48.1s.2 1.5 1.6 1.3c1.4-.2 2.2-1.4 3.9-.6 1.7.8 4 .5 4.2 0 .2-.6-7-4-9.7-.7M426.7 57.2s14.3 2.9 25.1-2.7c0 0 1.6 3.6 1.2 5.4 0 0-11.9 1.3-14.6.6-2.6-.7-11.7-3.3-11.7-3.3M460.4 49.3s-2.5 1.6-2.4 3.1c.1 1.5 1.6 4.9 5.8 5l-3.4.7s-5.2-4.4-7.4-4.5l2.5-2.8 1.1-2.1 1.8-.7 2 1.3zM462.4 58.2l3.3-1.7 1.9-.9.4 1.3 1 1.8.5 1.1-.1.8-2.9.5h-1.8l-1.7-1.7z"/><path class="st4" d="M454.7 71.1c-1.3 0-2.7-.7-3.4-1.7-.7-1-.6-2.1.2-3 1.4-1.7 1.2-4.8 1.1-6-3.5.7-7.1 1-10.6.8-3-.1-5.9-.6-8.8-1.3-4.1-1-6.8-2.3-7.6-2.8-1.1.7-2.3 1.6-2.5 1.8-.2.5-.9 1.9-1 2-.1.2-.3.3-.4.3-1 0-2.5-1.2-3-1.5-.6-.5-2-1.7-2.3-2.9-.2-.7 0-1.2.6-1.6 1.8-1 3.9-2.6 3.9-2.6.2-.2.5-.1.7.1.2.2.1.5-.1.7-.1.1-2.2 1.6-4 2.6-.1.1-.2.1-.1.4.2.6.9 1.5 1.9 2.3.8.7 1.6 1.1 2.1 1.3l.8-1.6c.1-.2.3-.5 1.7-1.5.7-.5 1.4-.9 1.4-.9.2-.1.4-.1.5 0 0 0 2.9 1.6 7.7 2.8 2.8.7 5.7 1.1 8.6 1.2 3.6.2 7.3-.2 10.9-.9.1 0 .3 0 .4.1.1.1.2.2.2.3 0 .2.8 4.9-1.2 7.4-.5.6-.6 1.2-.1 1.8.7.9 2.3 1.5 3.4 1.1.9-.3 2.7-2.1 3.8-4.8.7-1.7 1.3-4.3.1-6.8-.1-.2-.1-.3 0-.5.1-.1.3-.2.4-.2h1.9c.1 0 .3 0 .3.1 0 0 2.2 2.1 2.7 2.5.2.1 1.1.2 2.1.2 1.1 0 1.9-.1 2.2-.3 0-.2-.1-.7-.8-2-.5-.9-1-1.7-1-1.7-.1-.1-.1-.3-.1-.4 0-.1.1-.2.2-.3.3-.2 1.5-1 2.1-1.1.3-.1 1.7-1.2 2-2 .1-.2.2-.3.4-.3l.8-.2.3-2.8c-.7-.4-2.7-1.7-5.1-2.1-2.5-.5-4.9 1.3-5.9 2-.2.1-.3.2-.4.3-.5.3-1.2.2-2.1-.3-.6-.3-1.1-.7-1.1-.7-.2-.2-.3-.5-.1-.7.2-.2.5-.3.7-.1 0 0 .4.3.9.6.7.4 1 .3 1 .3.1-.1.2-.2.4-.3 1.1-.8 3.8-2.8 6.7-2.2 3.2.6 5.7 2.4 5.8 2.4.1.1.2.3.2.5l-.4 3.4c0 .2-.2.4-.4.4l-.9.2c-.3.6-.8 1.1-1.1 1.4-.2.2-.9.9-1.5 1-.2 0-.8.4-1.3.7.2.3.5.8.8 1.3 1 1.8 1 2.5.9 2.8-.1.3-.2.5-.4.6-.6.4-2.1.4-2.9.4-.6 0-1.1 0-1.5-.1-.7-.1-.9-.2-1.1-.3-.3-.3-2.1-1.9-2.6-2.4h-.9c.4 1 .5 2.1.5 3.2-.1 1.2-.3 2.5-.9 3.7-1 2.5-3 4.8-4.4 5.3-.5.6-.9.6-1.3.6"/><path class="st4" d="M461.5 58.7s3.5-.6 4.7-2.4c0 0-2.2 1.3-6.3 1.4"/><path class="st4" d="M454.1 54c-.2-.1 4.8 1.4 6.3 3.7l-1 .7s-.5-1.9-5.3-4.4M452.9 57.5s.6 2 .7 2.9l-1.1-.8c-.1-.1.5-1.4.4-2.1M466 54s2.5-.5 3.2-1.5l3.4-.3-.3 1.1-3-.2s-1.4 1.1-3.3.9M468.2 51c0 .4-.3.7-.7.7-.4 0-.7-.3-.7-.7 0-.4.3-.7.7-.7.4 0 .7.3.7.7M439.3 58c-.9-1.6-.5-7.8-.5-8.1h.4c0 .1-.5 6.4.4 7.9l-.3.2z"/><path class="st3" d="M431 58s1.4-7.2 2.5-7.3c0 0-2.4-.4-2.2-1.3.2-.9.5-4.9 4.1-10.8l2.5-1.3 1.3-.9.9-1s-5.4-.1-7 .7c-1.6.8-3.7 1.3-3.8 1.8-.1.5-1.1 1-2.9 3.8-1.8 2.8-2.1 4.5-2.1 4.5s-3.9 5-3.7 5.9c.4 1.1 5 6.2 10.4 5.9"/><path class="st4" d="M423.6 55.3l-.3-.2 3.9-6.8.4.2zM431.1 57.5h-.4c.1-1.1.5-2.6 1.3-4.5.6-1.4 1.1-2.5 1.1-2.5l.3.2c.1 0-2.1 4.2-2.3 6.8"/><path class="st3" d="M455.6 43.5s-2.2 2.3-6 1.8c0 0-.9 2.4-3.4 3.2-2.6.8.1.4.1.4l-2.6.4s3.7 6.2 3.7 6.9c0 .8-.2.2-.2.2s4.4-3.1 4.2-4.7c0 0 2.7-1.6 2.3-4.8 0 0 2 .6 3.8-1.3l-1-.7-.9-1.4z"/><path class="st4" d="M456.5 49c-1-.1-2.1-.8-3.1-2.1-.7-.9-1.2-1.7-1.2-1.8l.3-.2s1.8 3.3 4 3.6v.5zM453.4 53.3c-.2 0-.5 0-3.3-2.6-1.4-1.3-2.6-2.5-2.7-2.5l.3-.3c3.1 3.1 5.4 5 5.7 5v.4zM447.2 56.5h-.4c0-.5-.3-1.6-1.8-4.1-.9-1.5-1.8-2.9-1.8-2.9l.3-.2c.2.2 3.8 5.3 3.7 7.2M425 46.4l-.2-.4 2.1-.8 2.8-5.9-.7-.6.2-.3 1 .8-3 6.3z"/><path class="st4" d="M430.2 49.6c-.4 0-.9-.1-1.5-.3-1-.4-1.7-1-2-1.7-.3-.7-.2-1.5.2-2.3l.4.2c-.4.8-.4 1.4-.2 2 .3.6.9 1.1 1.8 1.5 1.3.5 2 .2 2.3.1 0-1.7.7-3.6.8-3.7l3.2-6.8-1.7-.7-3.3 1.7-.2-.3 3.5-1.8 2.2 1-3.4 7.2c0 .1-.8 2.1-.7 3.7v.1l-.1.1c-.1-.3-.5 0-1.3 0"/><path class="st4" d="M435.3 51h-.7c-1.7-.1-2.8-.5-3.3-1.1-.3-.3-.3-.7-.3-.7h.4s0 1.1 3.2 1.4c3 .2 5-1.1 5.5-1.5-.6-2.6-.2-5.4.2-7.2.4-1.6.8-2.9 1-3.2l-2.3-1.9-3.6 1.8-.2-.3 3.8-1.9 2.8 2.2-.1.1s-.6 1.4-1 3.3c-.4 1.8-.8 4.5-.2 7.1v.1l-.1.1s-.6.5-1.6.9c-.7.4-2 .8-3.5.8"/><path class="st4" d="M441.7 49.8c-.6 0-1.1-.1-1.5-.5l.3-.3c.8.7 2 .4 3.7 0 .6-.2 1.3-.3 2-.5 2.5-.5 3.1-3.4 3.1-3.4 0-.1-.1-.6-.5-1.2-.4-.5-.8-1.1-1-1.3-.5-.4-1.6-3.1-1.9-3.8h-4.1v-.4h4.4l.1.1c.5 1.3 1.5 3.4 1.8 3.7.5.4 1.9 2.2 1.7 2.9 0 .1-.2.8-.7 1.7-.7 1.1-1.6 1.9-2.8 2.1-.7.1-1.3.3-1.9.5-1.2.2-2 .4-2.7.4"/><path class="st4" d="M450.8 45.4c-.4 0-.9 0-1.4-.1l.1-.4c3.4.5 5.3-1 5.7-1.3-.4-2.4-3.6-5.5-4-5.9l-2.9-.6-2.2 1.6-.2-.3 2.3-1.7 3.2.6s1 .9 2 2.1c1.3 1.6 2.1 3 2.3 4.1v.1l-.1.1s-.5.5-1.6 1c-.8.4-1.9.7-3.2.7M433.2 36.2h.4v1.3h-.4zM438.9 36.4l.3.3 2.1-1.7-.2-.3z"/><path class="st4" d="M421.2 52.1c.1.2.5 1.4 2.1 2.7 1 .8 2.3 1.4 3.8 1.9 1.9.6 4.2.9 6.8 1h.8c4.9 0 9.2-.7 12.8-2 2.5-.9 4.6-2.1 5.7-3.3.4-.4.8-.9 1.3-1.5 1.4-1.7 2.9-3.6 4.8-3.7-.2-.1-.5-.2-.8-.4-1.7-.8-2.9-1.4-3.1-2.2-.1-.4-.9-2.2-2.2-4-1.1-1.5-3-3.4-5.3-3.8h-.1s-3.3-1.2-5.7-1.2c-.5 0-.9 0-1.2.2h-.2s-.8-.1-1.9-.1c-1.5 0-4.2.2-5.7 1.3-.1.1-.2.1-.3.1 0 0-.8 0-1.7.3-1.2.4-2 1-2.5 1.9 0 .1-.1.1-.1.2 0 0-.9.8-1.9 2-.8 1.1-1.8 2.9-1.8 4.9 0 .1 0 .2-.1.3 0 0-.9 1.1-1.8 2.3-1.5 2-1.7 2.8-1.7 3.1m13.6 6.6h-.8c-2.7 0-5.2-.4-7.2-1-1.6-.5-3.1-1.2-4.2-2.1-1.9-1.6-2.4-3.1-2.4-3.2v-.1c-.1-.8.6-2.1 1.9-3.9.7-1 1.5-1.9 1.8-2.2 0-1.8.8-3.6 2-5.3.8-1.1 1.7-1.9 1.9-2.1 1.3-2.3 4.1-2.6 4.9-2.7 1.6-1.1 4.2-1.4 6.2-1.4.9 0 1.6.1 1.9.1.4-.1.9-.2 1.4-.2 2.4 0 5.6 1.1 6 1.3 1.1.2 2.3.8 3.3 1.6.9.7 1.7 1.6 2.5 2.6 1.4 1.8 2.2 3.7 2.4 4.3 0 0 .1.2.8.7.5.3 1.2.6 1.8.9.8.4 1.3.6 1.5.8.4.4.4.7.3.9-.2.5-.8.6-1 .6H459.5c-1.5 0-2.9 1.8-4.2 3.4-.4.6-.9 1.1-1.3 1.5-.6.6-2.3 2.2-6.1 3.5-3.6 1.3-8.1 2-13.1 2"/><path class="st0" d="M37.6 19.9v33.5h-.2l-16-33.5H8.9v59.3h12.7v-35h.1l16.9 35h11.7V19.9zM62 79.2V19.9h34.6v10.3H75.5V44h19.6v10.2H75.5v14.7h21.9v10.3zM119.7 80l-18.6-60.1h13l8.4 31.4h.2l9.4-31.4h10.8l9.3 31.4h.2l8.5-31.4h13L155.4 80h-5.8l-12.1-38.4h-.2L125.5 80zM243.1 67.5v11.7h-38.3v-1c3.8-4.1 8.4-10.8 13.9-20 5.5-9.3 8.2-15.7 8.2-19.3 0-2.5-.8-4.7-2.4-6.3-1.6-1.7-3.6-2.5-6-2.5-3.4 0-7.4 1.4-11.9 4.3V23.6c4.9-2.9 10.1-4.4 15.3-4.4 5.1 0 9.3 1.5 12.6 4.6 3.3 3.1 5 6.9 5 11.6 0 4.3-1.2 9-3.7 14.1s-6.2 11.2-11.2 18.1h18.5zM253.4 92.4v-2.2c2.6-2.2 4.1-5.8 4.5-10.6-3.3-1.3-4.9-3.6-4.9-6.9 0-1.9.7-3.5 2-4.8 1.3-1.3 3-2 4.9-2 2.4 0 4.4.9 5.9 2.7 1.5 1.8 2.3 4.2 2.3 7.2-.1 8.5-4.9 14-14.7 16.6M281.1 75.2l15.8-43.5h-21.8V19.9h38.3v2.6L292.8 80zM367.9 54.5c-1.2 0-2 .7-2.4 2.2-.4 1.5-.6 3.9-.6 7.3s.2 5.8.7 7.2c.4 1.4 1.2 2.2 2.4 2.2s2-.7 2.5-2.1c.4-1.4.7-3.8.7-7.2 0-3.4-.2-5.9-.7-7.3-.5-1.5-1.4-2.3-2.6-2.3m0 25.1c-3.8 0-6.8-1.3-8.9-4-2.1-2.7-3.1-6.5-3.1-11.5 0-5.1 1-8.9 3.1-11.7 2.1-2.7 5-4.1 8.9-4.1 3.8 0 6.8 1.4 8.9 4.1 2.1 2.7 3.2 6.6 3.2 11.7 0 5-1.1 8.8-3.2 11.5-2.1 2.7-5 4-8.9 4m-39.4 1.8l33.3-63.9h8.3l-32.9 63.9h-8.7zm2.3-56c-1.2 0-2 .7-2.4 2.2-.4 1.5-.6 3.9-.6 7.3s.2 5.8.6 7.2c.4 1.4 1.2 2.2 2.4 2.2s2-.7 2.5-2.2c.4-1.4.7-3.9.7-7.2 0-3.4-.2-5.8-.7-7.3-.4-1.5-1.2-2.2-2.5-2.2m0 25.1c-3.8 0-6.8-1.4-8.8-4-2.1-2.7-3.1-6.6-3.1-11.6s1-8.9 3.1-11.6c2.1-2.7 5-4.1 8.8-4.1 3.9 0 6.9 1.4 8.9 4.1 2.1 2.7 3.1 6.6 3.1 11.6s-1 8.9-3.1 11.6c-2 2.6-5 4-8.9 4"/></svg>